<svg xmlns="http://www.w3.org/2000/svg" xmlns:xlink="http://www.w3.org/1999/xlink" xmlns:lucid="lucid" width="2394.18" height="1423.92"><g transform="translate(-6187.317851911556 3828.9963487740474)" lucid:page-tab-id="0_0"><path d="M6188.82-3743a6 6 0 0 1 6-6H8574a6 6 0 0 1 6 6v566.62a6 6 0 0 1-6 6H6194.82a6 6 0 0 1-6-6z" stroke="#000" stroke-width="3" fill-opacity="0"/><path d="M7058.85-3823a6 6 0 0 1 6-6h648a6 6 0 0 1 6 6v8a6 6 0 0 1-6 6h-648a6 6 0 0 1-6-6z" stroke="#000" stroke-opacity="0" stroke-width="3" fill="#fff" fill-opacity="0"/><use xlink:href="#a" transform="matrix(1,0,0,1,7063.846778167075,-3823.9963487740474) translate(160.75925925925932 37.333333333333314)"/><use xlink:href="#b" transform="matrix(1,0,0,1,7063.846778167075,-3823.9963487740474) translate(354.6851851851852 37.333333333333314)"/><path d="M6207.3-3683a6 6 0 0 1 6-6h1248a6 6 0 0 1 6 6v488a6 6 0 0 1-6 6h-1248a6 6 0 0 1-6-6z" stroke="#1071e5" stroke-width="3" fill-opacity="0"/><path d="M6527.3-3736a6 6 0 0 1 6-6h648a6 6 0 0 1 6 6v8a6 6 0 0 1-6 6h-648a6 6 0 0 1-6-6z" stroke="#000" stroke-opacity="0" stroke-width="3" fill="#fff" fill-opacity="0"/><use xlink:href="#c" transform="matrix(1,0,0,1,6532.292804389125,-3736.9963487740474) translate(101.19444444444451 37.333333333333314)"/><use xlink:href="#d" transform="matrix(1,0,0,1,6532.292804389125,-3736.9963487740474) translate(310.9351851851852 37.333333333333314)"/><path d="M6319.57-3470.1h-45.7c-2.37 0-3.85 1.82-3.85 3.64v54.44c0 2.3 1.93 4.13 3.86 4.13h54.3c2.37 0 4-1.8 4-4.12v-45.93h-12.6v-12.28zm-1.04 47.02h-34.86v-6.32h34.86v6.32zm0-11.42h-34.86v-6.32h34.86v6.32zm0-11.8h-34.86v-6.3h34.86v6.3z" stroke="#000" stroke-opacity="0" fill="#0078d7"/><path d="M6338.4-3499.76h-73.87L6227.3-3439l37.23 60.77h73.88l37.25-60.77-37.24-60.76zm-9.78 97.83h-54.3c-5.93 0-10.68-4.5-10.68-9.97v-54.56c0-5.6 4.75-9.97 10.68-9.97h49.25l15.58 14.83v49.58c.15 5.6-4.6 10.1-10.53 10.1z" stroke="#000" stroke-opacity="0" fill="#0078d7"/><use xlink:href="#e" transform="matrix(1,0,0,1,6197.292804389125,-3369.234035221597) translate(61.068518518518545 25.066666666666656)"/><path d="M6612.41-3484.23c24.87 0 45.02 20.14 45.02 45 0 24.85-20.15 45-45 45h-160.13c-24.86 0-45-20.15-45-45 0-24.86 20.14-45 45-45z" stroke="#000" stroke-width="3" fill-opacity="0"/><use xlink:href="#f" transform="matrix(1,0,0,1,6412.292804389125,-3479.234035221597) translate(5.9629629629630045 26.66666666666667)"/><use xlink:href="#g" transform="matrix(1,0,0,1,6412.292804389125,-3479.234035221597) translate(109.2962962962963 26.66666666666667)"/><use xlink:href="#h" transform="matrix(1,0,0,1,6412.292804389125,-3479.234035221597) translate(49.342592592592624 66.66666666666666)"/><path d="M6964.55-3334.68h10.78" stroke="#5e5e5e" stroke-width="2" fill="none"/><path d="M6964.57-3333.7h-1.02v-1.96h1.02z" stroke="#5e5e5e" stroke-width=".05" fill="#5e5e5e"/><path d="M6990.6-3334.68l-14.27 4.63v-9.27z" stroke="#5e5e5e" stroke-width="2" fill="#5e5e5e"/><path d="M7097.66-3334.68h10.78" stroke="#5e5e5e" stroke-width="2" fill="none"/><path d="M7097.7-3333.7h-1.04v-1.96h1.03z" stroke="#5e5e5e" stroke-width=".05" fill="#5e5e5e"/><path d="M7123.7-3334.68l-14.26 4.63v-9.27z" stroke="#5e5e5e" stroke-width="2" fill="#5e5e5e"/><path d="M7097.66-3534.88h10.78" stroke="#5e5e5e" stroke-width="2" fill="none"/><path d="M7097.7-3533.9h-1.04v-1.95h1.03z" stroke="#5e5e5e" stroke-width=".05" fill="#5e5e5e"/><path d="M7123.7-3534.88l-14.26 4.64v-9.27z" stroke="#5e5e5e" stroke-width="2" fill="#5e5e5e"/><path d="M6964.55-3534.88h10.78" stroke="#5e5e5e" stroke-width="2" fill="none"/><path d="M6964.57-3533.9h-1.02v-1.95h1.02z" stroke="#5e5e5e" stroke-width=".05" fill="#5e5e5e"/><path d="M6990.6-3534.88l-14.27 4.64v-9.27z" stroke="#5e5e5e" stroke-width="2" fill="#5e5e5e"/><path d="M7230.78-3534.88h46.82a6 6 0 0 1 6 6v88.1a6 6 0 0 0 6 6h29.33" stroke="#5e5e5e" stroke-width="2" fill="none"/><path d="M7230.8-3533.9h-1.02v-1.95h1.02z" stroke="#5e5e5e" stroke-width=".05" fill="#5e5e5e"/><path d="M7334.2-3434.78l-14.27 4.64v-9.28z" stroke="#5e5e5e" stroke-width="2" fill="#5e5e5e"/><path d="M7230.78-3334.68h46.82a6 6 0 0 0 6-6v-88.1a6 6 0 0 1 6-6h29.33" stroke="#5e5e5e" stroke-width="2" fill="none"/><path d="M7230.8-3333.7h-1.02v-1.96h1.02z" stroke="#5e5e5e" stroke-width=".05" fill="#5e5e5e"/><path d="M7334.2-3434.78l-14.27 4.64v-9.28z" stroke="#5e5e5e" stroke-width="2" fill="#5e5e5e"/><path d="M6796.66-3534.88h45.53" stroke="#5e5e5e" stroke-width="2" fill="none"/><path d="M6796.68-3533.9h-1.02v-1.95h1.02z" stroke="#5e5e5e" stroke-width=".05" fill="#5e5e5e"/><path d="M6857.48-3534.88l-14.27 4.64v-9.27z" stroke="#5e5e5e" stroke-width="2" fill="#5e5e5e"/><path d="M6796.66-3334.68h45.53" stroke="#5e5e5e" stroke-width="2" fill="none"/><path d="M6796.68-3333.7h-1.02v-1.96h1.02z" stroke="#5e5e5e" stroke-width=".05" fill="#5e5e5e"/><path d="M6857.48-3334.68l-14.27 4.63v-9.27z" stroke="#5e5e5e" stroke-width="2" fill="#5e5e5e"/><path d="M6956.05-3614.96a6 6 0 0 1 6 6v148.16a6 6 0 0 1-6 6h-87.84a6 6 0 0 1-6-6v-148.16a6 6 0 0 1 6-6z" stroke="#5e5e5e" stroke-width="3" fill="#cfe4ff"/><use xlink:href="#i" transform="matrix(6.123233995736766e-17,1,-1,6.123233995736766e-17,6950.049395118982,-3602.956954552401) translate(27.407407407407412 43.888888888888886)"/><path d="M7222.28-3614.96a6 6 0 0 1 6 6v148.16a6 6 0 0 1-6 6h-87.84a6 6 0 0 1-6-6v-148.16a6 6 0 0 1 6-6z" stroke="#5e5e5e" stroke-width="3" fill="#cfe4ff"/><use xlink:href="#j" transform="matrix(6.123233995736766e-17,1,-1,6.123233995736766e-17,7216.277782205512,-3602.956954552399) translate(57.308641975308646 43.888888888888886)"/><path d="M7089.16-3614.96a6 6 0 0 1 6 6v148.16a6 6 0 0 1-6 6h-87.83a6 6 0 0 1-6-6v-148.16a6 6 0 0 1 6-6z" stroke="#5e5e5e" stroke-width="3" fill="#cfe4ff"/><use xlink:href="#k" transform="matrix(6.123233995736766e-17,1,-1,6.123233995736766e-17,7083.163588662246,-3602.956954552401) translate(-2.320987654320973 44.22222222222222)"/><path d="M6956.05-3414.76a6 6 0 0 1 6 6v148.16a6 6 0 0 1-6 6h-87.84a6 6 0 0 1-6-6v-148.16a6 6 0 0 1 6-6z" stroke="#5e5e5e" stroke-width="3" fill="#cfe4ff"/><use xlink:href="#l" transform="matrix(6.123233995736766e-17,1,-1,6.123233995736766e-17,6950.049395118982,-3402.7599834441626) translate(27.407407407407412 43.888888888888886)"/><path d="M7222.28-3414.76a6 6 0 0 1 6 6v148.16a6 6 0 0 1-6 6h-87.84a6 6 0 0 1-6-6v-148.16a6 6 0 0 1 6-6z" stroke="#5e5e5e" stroke-width="3" fill="#cfe4ff"/><use xlink:href="#m" transform="matrix(6.123233995736766e-17,1,-1,6.123233995736766e-17,7216.277782205512,-3402.7599834441608) translate(58.12962962962963 43.888888888888886)"/><path d="M7089.16-3414.76a6 6 0 0 1 6 6v148.16a6 6 0 0 1-6 6h-87.83a6 6 0 0 1-6-6v-148.16a6 6 0 0 1 6-6z" stroke="#5e5e5e" stroke-width="3" fill="#cfe4ff"/><use xlink:href="#n" transform="matrix(6.123233995736766e-17,1,-1,6.123233995736766e-17,7083.163588662246,-3402.7599834441626) translate(-2.320987654320973 44.22222222222222)"/><path d="M7432.77-3554.9a6 6 0 0 1 6 6v228.24a6 6 0 0 1-6 6h-87.84a6 6 0 0 1-6-6v-228.24a6 6 0 0 1 6-6z" stroke="#5e5e5e" stroke-width="3" fill="#cfe4ff"/><use xlink:href="#o" transform="matrix(6.123233995736766e-17,1,-1,6.123233995736766e-17,7426.764600745801,-3542.8978632199287) translate(1.6419753086419888 43.888888888888886)"/><path d="M6789.66-3655a6 6 0 0 1 6 6v228.24a6 6 0 0 1-6 6h-87.84a6 6 0 0 1-6-6V-3649a6 6 0 0 1 6-6z" stroke="#000" stroke-opacity="0" stroke-width="3" fill="#cfe4ff"/><use xlink:href="#p" transform="matrix(6.123233995736766e-17,1,-1,6.123233995736766e-17,6790.656653189899,-3649.996348774046) translate(81.06172839506173 50.201388888888886)"/><path d="M6789.66-3454.8a6 6 0 0 1 6 6v228.24a6 6 0 0 1-6 6h-87.84a6 6 0 0 1-6-6v-228.24a6 6 0 0 1 6-6z" stroke="#000" stroke-opacity="0" stroke-width="3" fill="#cfe4ff"/><use xlink:href="#q" transform="matrix(6.123233995736766e-17,1,-1,6.123233995736766e-17,6790.656653189899,-3449.7993776658077) translate(43.03703703703705 33.326388888888886)"/><use xlink:href="#r" transform="matrix(6.123233995736766e-17,1,-1,6.123233995736766e-17,6790.656653189899,-3449.7993776658077) translate(160.39506172839506 33.326388888888886)"/><use xlink:href="#s" transform="matrix(6.123233995736766e-17,1,-1,6.123233995736766e-17,6790.656653189899,-3449.7993776658077) translate(15.469135802469154 70.65972222222221)"/><use xlink:href="#t" transform="matrix(6.123233995736766e-17,1,-1,6.123233995736766e-17,6790.656653189899,-3449.7993776658077) translate(146.65432098765433 70.65972222222221)"/><path d="M6661.41-3439.23h9.57" stroke="#5e5e5e" stroke-width="5" fill="none"/><path d="M6661.48-3436.76h-2.7l.14-2.44v-.8l-.13-1.7h2.68z" stroke="#5e5e5e" stroke-width=".05" fill="#5e5e5e"/><path d="M6687.73-3439.23l-14.27 4.63v-9.27z" stroke="#5e5e5e" stroke-width="5" fill="#5e5e5e"/><path d="M6377.45-3440.94h1.88" stroke="#5e5e5e" stroke-width="6" fill="none"/><path d="M6377.53-3437.97H6375l.65-1.03-3.02-4.92h4.9z" stroke="#5e5e5e" stroke-width=".05" fill="#5e5e5e"/><path d="M6396.15-3440.66l-14.34 4.4.17-9.27z" stroke="#5e5e5e" stroke-width="6" fill="#5e5e5e"/><path d="M7487.3-3684.64a6 6 0 0 1 6-6H8554a6 6 0 0 1 6 6v488a6 6 0 0 1-6 6H7493.3a6 6 0 0 1-6-6z" stroke="#e81313" stroke-width="3" fill-opacity="0"/><path d="M7679.3-3743a6 6 0 0 1 6-6h648a6 6 0 0 1 6 6v8a6 6 0 0 1-6 6h-648a6 6 0 0 1-6-6z" stroke="#000" stroke-opacity="0" stroke-width="3" fill="#fff" fill-opacity="0"/><use xlink:href="#u" transform="matrix(1,0,0,1,7684.292804389125,-3743.9963487740474) translate(173.7870370370371 37.333333333333314)"/><path d="M8073.6-3479.72h-40.1c-2.1 0-3.4 1.5-3.4 2.98v44.55c0 1.9 1.7 3.4 3.4 3.4h47.65c2.1 0 3.52-1.5 3.52-3.4v-37.58h-11.07v-10.04zm-.9 38.48h-30.6v-5.17h30.6v5.16zm0-9.35h-30.6v-5.16h30.6v5.17zm0-9.63h-30.6v-5.18h30.6v5.17z" stroke="#000" stroke-opacity="0" fill="#0078d7"/><path d="M8090.14-3503.98h-64.85l-32.7 49.7 32.7 49.73h64.84l32.68-49.72-32.68-49.7zm-8.6 80.04h-47.65c-5.22 0-9.4-3.68-9.4-8.15v-44.64c0-4.57 4.18-8.15 9.4-8.15h43.22l13.67 12.14v40.57c.12 4.58-4.05 8.26-9.26 8.26z" stroke="#000" stroke-opacity="0" fill="#0078d7"/><path d="M8124.77-3455.86h6.3" stroke="#5e5e5e" stroke-width="6" fill="none"/><path d="M8124.85-3452.88h-2.94l.92-1.4-3-4.55h5.03z" stroke="#5e5e5e" stroke-width=".05" fill="#5e5e5e"/><path d="M8146.8-3454.9l-14.5 3.76.55-9.26z" stroke="#5e5e5e" stroke-width="6" fill="#5e5e5e"/><path d="M7060-3063a6 6 0 0 1 6-6h648a6 6 0 0 1 6 6v8a6 6 0 0 1-6 6h-648a6 6 0 0 1-6-6z" stroke="#000" stroke-opacity="0" stroke-width="3" fill="#fff" fill-opacity="0"/><use xlink:href="#v" transform="matrix(1,0,0,1,7065,-3063.9963487740474) translate(147.73148148148155 37.333333333333314)"/><use xlink:href="#w" transform="matrix(1,0,0,1,7065,-3063.9963487740474) translate(367.71296296296293 37.333333333333314)"/><path d="M6360-2979.85a6 6 0 0 1 6-6h648a6 6 0 0 1 6 6v8a6 6 0 0 1-6 6h-648a6 6 0 0 1-6-6z" stroke="#000" stroke-opacity="0" stroke-width="3" fill="#fff" fill-opacity="0"/><use xlink:href="#x" transform="matrix(1,0,0,1,6365,-2980.8539156450247) translate(101.19444444444451 37.333333333333314)"/><use xlink:href="#y" transform="matrix(1,0,0,1,6365,-2980.8539156450247) translate(310.9351851851852 37.333333333333314)"/><path d="M7392.27-2714.02h-45.7c-2.36 0-3.84 1.83-3.84 3.65v54.44c0 2.3 1.92 4.13 3.85 4.13h54.3c2.37 0 4-1.82 4-4.13v-45.93h-12.6v-12.28zm-1.03 47.03h-34.87v-6.3h34.87v6.3zm0-11.4h-34.87v-6.33h34.87v6.32zm0-11.8h-34.87v-6.32h34.87v6.32z" stroke="#000" stroke-opacity="0" fill="#0078d7"/><path d="M7411.12-2743.67h-73.88L7300-2682.9l37.24 60.76h73.88l37.23-60.77-37.23-60.77zm-9.8 97.83h-54.3c-5.93 0-10.67-4.5-10.67-9.97v-54.57c0-5.6 4.74-9.97 10.68-9.97h49.25l15.58 14.83v49.57c.15 5.6-4.6 10.1-10.53 10.1z" stroke="#000" stroke-opacity="0" fill="#0078d7"/><use xlink:href="#z" transform="matrix(1,0,0,1,7270,-2613.143937348234) translate(25.383333333333383 25.066666666666656)"/><path d="M7974.6-3422.06a6 6 0 0 1 6-6h152.86a6 6 0 0 1 6 6v150.1a6 6 0 0 1-6 6H7980.6a6 6 0 0 1-6-6z" stroke="#000" stroke-opacity="0" stroke-width="3" fill="#fff" fill-opacity="0"/><use xlink:href="#A" transform="matrix(1,0,0,1,7979.611877334096,-3423.05986776822) translate(-1.6166666666666174 63.966666666666676)"/><use xlink:href="#B" transform="matrix(1,0,0,1,7979.611877334096,-3423.05986776822) translate(53.17314814814816 101.56666666666666)"/><path d="M8375.98-3610.37c0 19.68-48.55 35.63-108.43 35.63-59.88 0-108.43-15.95-108.43-35.63 0-19.68 48.55-35.63 108.43-35.63 59.88 0 108.43 15.95 108.43 35.63z" stroke="#635dff" stroke-width="3" fill="#fff"/><use xlink:href="#C" transform="matrix(1,0,0,1,8164.121097947938,-3641) translate(3.006172839506206 37.666666666666664)"/><path d="M8375.98-3494.7c0 18.45-47.7 33.4-106.54 33.4s-106.54-14.95-106.54-33.4 47.7-33.4 106.54-33.4 106.53 14.95 106.53 33.4z" stroke="#635dff" stroke-width="3" fill="#fff"/><use xlink:href="#D" transform="matrix(1,0,0,1,8167.90093433893,-3523.107343307651) translate(1.9382716049383077 35.166666666666664)"/><path d="M8380.74-3281.26c0 18.45-47.7 33.4-106.54 33.4s-106.54-14.95-106.54-33.4c0-18.44 47.7-33.4 106.54-33.4s106.53 14.95 106.53 33.4z" stroke="#635dff" stroke-width="3" fill="#fff"/><use xlink:href="#E" transform="matrix(1,0,0,1,8172.661528973709,-3309.6614978900416) translate(1.5061728395062062 35.166666666666664)"/><path d="M8377.85-3393.67c0 18.45-48.77 33.4-108.92 33.4-60.16 0-108.93-14.95-108.93-33.4s48.77-33.4 108.93-33.4c60.15 0 108.92 14.95 108.92 33.4z" stroke="#635dff" stroke-width="3" fill="#fff"/><use xlink:href="#F" transform="matrix(1,0,0,1,8165,-3422.078325912668) translate(94.74574074074074 32.02777777777778)"/><path d="M8158-3654a6 6 0 0 1 6-6h216.4a6 6 0 0 1 6 6v399.4a6 6 0 0 1-6 6H8164a6 6 0 0 1-6-6z" stroke="#635dff" stroke-width="3" fill-opacity="0"/><path d="M8433.94-3451.3h84.24v20.42h-84.24v-20.4zM8433.94-3481.95h84.24v20.4h-84.24v-20.4zM8433.94-3512.62h84.24v20.4h-84.24v-20.4z" stroke="#000" stroke-opacity="0" fill="#2a3282"/><path d="M8426.26-3423.2v-89.42h-10.2v99.57h120v-99.58h-10.2v89.3h-99.6v.1z" stroke="#000" stroke-opacity="0" fill="#2a3282"/><use xlink:href="#G" transform="matrix(1,0,0,1,8386.057414254108,-3404.053537008219) translate(48.26574074074075 25.066666666666663)"/><use xlink:href="#H" transform="matrix(1,0,0,1,8386.057414254108,-3404.053537008219) translate(105.62314814814815 25.066666666666663)"/><use xlink:href="#I" transform="matrix(1,0,0,1,8386.057414254108,-3404.053537008219) translate(14.321296296296325 62.66666666666666)"/><path d="M8390.9-3454.3h.05" stroke="#5e5e5e" stroke-width="6" fill="none"/><path d="M8390.97-3451.33h-3.07v-5.95h3.07z" stroke="#5e5e5e" stroke-width=".05" fill="#5e5e5e"/><path d="M8406.38-3455.45l-13.9 5.68-.67-9.24z" stroke="#5e5e5e" stroke-width="6" fill="#5e5e5e"/><path d="M8024.85-2836.47c0 19.3-50.33 34.92-112.42 34.92-62.1 0-112.43-15.63-112.43-34.9 0-19.3 50.34-34.93 112.43-34.93 62.1 0 112.42 15.63 112.42 34.9z" stroke="#635dff" stroke-width="3" fill="#fff"/><use xlink:href="#J" transform="matrix(1,0,0,1,7805,-2866.378252071451) translate(41.20870370370373 35.944444444444436)"/><use xlink:href="#K" transform="matrix(1,0,0,1,7805,-2866.378252071451) translate(113.45561728395062 35.944444444444436)"/><use xlink:href="#L" transform="matrix(1,0,0,1,7805,-2866.378252071451) translate(132.51734567901235 35.944444444444436)"/><path d="M8021.17-2738c0 19.92-50.33 36.06-112.42 36.06-62.1 0-112.43-16.14-112.43-36.05 0-19.9 50.33-36.03 112.43-36.03 62.1 0 112.42 16.13 112.42 36.04z" stroke="#635dff" stroke-width="3" fill="#fff"/><use xlink:href="#M" transform="matrix(1,0,0,1,7801.319072944969,-2769.034321460854) translate(40.70870370370373 40.256944444444436)"/><use xlink:href="#K" transform="matrix(1,0,0,1,7801.319072944969,-2769.034321460854) translate(112.95561728395062 40.256944444444436)"/><use xlink:href="#L" transform="matrix(1,0,0,1,7801.319072944969,-2769.034321460854) translate(132.01734567901235 40.256944444444436)"/><path d="M8024.85-2530.36c0 18.9-50.33 34.2-112.42 34.2-62.1 0-112.43-15.3-112.43-34.2 0-18.9 50.34-34.2 112.43-34.2 62.1 0 112.42 15.3 112.42 34.2z" stroke="#635dff" stroke-width="3" fill="#fff"/><use xlink:href="#N" transform="matrix(1,0,0,1,7805,-2559.567323805414) translate(41.20870370370373 35.819444444444436)"/><use xlink:href="#K" transform="matrix(1,0,0,1,7805,-2559.567323805414) translate(113.45561728395062 35.819444444444436)"/><use xlink:href="#L" transform="matrix(1,0,0,1,7805,-2559.567323805414) translate(132.51734567901235 35.819444444444436)"/><path d="M8024.85-2632.73c0 19.9-50.33 36.05-112.42 36.05-62.1 0-112.43-16.14-112.43-36.05 0-19.9 50.34-36.04 112.43-36.04 62.1 0 112.42 16.13 112.42 36.04z" stroke="#635dff" stroke-width="3" fill="#fff"/><use xlink:href="#O" transform="matrix(1,0,0,1,7805,-2663.7740676157473) translate(95.46796296296297 38.8611111111111)"/><path d="M7798-2892a6 6 0 0 1 6-6h214.85a6 6 0 0 1 6 6v388a6 6 0 0 1-6 6H7804a6 6 0 0 1-6-6z" stroke="#635dff" stroke-width="3" fill-opacity="0"/><path d="M8297.88-2693.67h84.24v20.4h-84.24v-20.4zM8297.88-2724.33h84.24v20.4h-84.24v-20.4zM8297.88-2755h84.24v20.4h-84.24v-20.4z" stroke="#000" stroke-opacity="0" fill="#2a3282"/><path d="M8290.2-2665.6v-89.4H8280v99.56h120V-2755h-10.2v89.3h-99.6v.1z" stroke="#000" stroke-opacity="0" fill="#2a3282"/><use xlink:href="#P" transform="matrix(1,0,0,1,8250,-2646.4355942750467) translate(48.26574074074075 25.066666666666663)"/><use xlink:href="#Q" transform="matrix(1,0,0,1,8250,-2646.4355942750467) translate(105.62314814814815 25.066666666666663)"/><use xlink:href="#R" transform="matrix(1,0,0,1,8250,-2646.4355942750467) translate(14.321296296296325 62.66666666666666)"/><path d="M8029.35-2698h123.55a.27.27 0 0 0 .28-.27.27.27 0 0 1 .27-.28h99.58" stroke="#5e5e5e" stroke-width="6" fill="none"/><path d="M8029.43-2695.03h-3.08v-5.94h3.08z" stroke="#5e5e5e" stroke-width=".05" fill="#5e5e5e"/><path d="M8270.3-2698.55l-14.27 4.64v-9.28z" stroke="#5e5e5e" stroke-width="6" fill="#5e5e5e"/><path d="M7694.85-2987.2a6 6 0 0 1 6-6h648a6 6 0 0 1 6 6v8a6 6 0 0 1-6 6h-648a6 6 0 0 1-6-6z" stroke="#000" stroke-opacity="0" stroke-width="3" fill="#fff" fill-opacity="0"/><use xlink:href="#S" transform="matrix(1,0,0,1,7699.853597805437,-2988.1931959065864) translate(173.7870370370371 37.333333333333314)"/><path d="M7451.16-2684.85h170.46a.2.2 0 0 1 .2.2.2.2 0 0 0 .22.22h143.25" stroke="#5e5e5e" stroke-width="8" fill="none"/><path d="M7451.26-2680.88h-4.15l1.25-2.03-3.63-5.93h6.54z" stroke="#5e5e5e" stroke-width=".05" fill="#5e5e5e"/><path d="M7783.56-2684.43l-14.27 4.64v-9.26z" stroke="#5e5e5e" stroke-width="8" fill="#5e5e5e"/><path d="M6834.06-3638.6a6 6 0 0 1 6-6h403.6a6 6 0 0 1 6 6v195.1a6 6 0 0 1-6 6h-403.6a6 6 0 0 1-6-6z" stroke="#fcce14" stroke-width="3" fill-opacity="0"/><path d="M6924.3-3774a6 6 0 0 1 6-6h251a6 6 0 0 1 6 6v230.1a6 6 0 0 1-6 6h-251a6 6 0 0 1-6-6z" stroke="#000" stroke-opacity="0" stroke-width="3" fill="#fff" fill-opacity="0"/><use xlink:href="#T" transform="matrix(1,0,0,1,6929.292804389125,-3775) translate(68.22870370370374 119.72291666666666)"/><path d="M7850.35-3456.5h-.4" stroke="#5e5e5e" stroke-width="2" fill="none"/><path d="M7850.38-3455.53h-1.03v-1.95h1.03z" stroke="#5e5e5e" stroke-width=".05" fill="#5e5e5e"/><path d="M7865.23-3456.5l-14.27 4.63v-9.27z" stroke="#5e5e5e" stroke-width="2" fill="#5e5e5e"/><path d="M7761.9-3456.5h-.4" stroke="#5e5e5e" stroke-width="2" fill="none"/><path d="M7761.92-3455.53h-1.02v-1.95h1.02z" stroke="#5e5e5e" stroke-width=".05" fill="#5e5e5e"/><path d="M7776.77-3456.5l-14.26 4.63v-9.27z" stroke="#5e5e5e" stroke-width="2" fill="#5e5e5e"/><path d="M7753.4-3503.3a6 6 0 0 1 6 6v81.6a6 6 0 0 1-6 6h-54.34a6 6 0 0 1-6-6v-81.6a6 6 0 0 1 6-6z" stroke="#5e5e5e" stroke-width="3" fill="#cfe4ff"/><use xlink:href="#l" transform="matrix(6.123233995736766e-17,1,-1,6.123233995736766e-17,7747.398274299011,-3491.315062397999) translate(-6.092592592592588 27.72222222222222)"/><path d="M7930.3-3503.3a6 6 0 0 1 6 6v81.6a6 6 0 0 1-6 6h-54.34a6 6 0 0 1-6-6v-81.6a6 6 0 0 1 6-6z" stroke="#5e5e5e" stroke-width="3" fill="#cfe4ff"/><use xlink:href="#U" transform="matrix(6.123233995736766e-17,1,-1,6.123233995736766e-17,7924.303223497233,-3491.315062397999) translate(23.808641975308646 27.576388888888886)"/><path d="M7841.85-3503.32a6 6 0 0 1 6 6v81.63a6 6 0 0 1-6 6h-54.34a6 6 0 0 1-6-6v-81.62a6 6 0 0 1 6-6z" stroke="#5e5e5e" stroke-width="3" fill="#cfe4ff"/><use xlink:href="#V" transform="matrix(6.123233995736766e-17,1,-1,6.123233995736766e-17,7835.850748898122,-3491.315062397999) translate(-8.209876543209873 27.72222222222222)"/><path d="M7683.6-3509.53a6 6 0 0 1 6-6h264.17a6 6 0 0 1 6 6v109.08a6 6 0 0 1-6 6H7689.6a6 6 0 0 1-6-6z" stroke="#fcce14" stroke-width="3" fill-opacity="0"/><path d="M7648.87-3633.8a6 6 0 0 1 6-6h360.3a6 6 0 0 1 6 6v129.53a6 6 0 0 1-6 6h-360.3a6 6 0 0 1-6-6z" stroke="#000" stroke-opacity="0" stroke-width="3" fill="#fff" fill-opacity="0"/><use xlink:href="#W" transform="matrix(1,0,0,1,7653.870354080921,-3634.792271186222) translate(119.09598765432101 51.594444444444434)"/><use xlink:href="#X" transform="matrix(1,0,0,1,7653.870354080921,-3634.792271186222) translate(62.42438271604942 91.86111111111109)"/><use xlink:href="#Y" transform="matrix(1,0,0,1,7653.870354080921,-3634.792271186222) translate(196.36697530864197 91.86111111111109)"/><path d="M7964.27-3454.9l1.56.05" stroke="#5e5e5e" stroke-width="6" fill="none"/><path d="M7964.44-3457.87l-.2 5.95-2.97-.1v-5.95z" stroke="#5e5e5e" stroke-width=".05" fill="#5e5e5e"/><path d="M7983.1-3454.3l-14.4 4.18.28-9.27z" stroke="#5e5e5e" stroke-width="6" fill="#5e5e5e"/><path d="M7599.65-3469.75h-40.1c-2.08 0-3.4 1.5-3.4 3v44.53c0 1.9 1.7 3.38 3.4 3.38h47.65c2.1 0 3.52-1.5 3.52-3.38v-37.6l-11.07.02v-10.05zm-.9 38.48h-30.6v-5.17h30.6v5.17zm0-9.34h-30.6v-5.18h30.6v5.17zm0-9.66h-30.6v-5.17h30.6v5.17z" stroke="#000" stroke-opacity="0" fill="#0078d7"/><path d="M7616.2-3494h-64.85l-32.7 49.7 32.7 49.72h64.84l32.67-49.7-32.68-49.73zm-8.6 80.03h-47.66c-5.2 0-9.38-3.68-9.38-8.15v-44.64c0-4.58 4.17-8.16 9.38-8.16h43.23l13.67 12.13v40.58c.13 4.57-4.04 8.25-9.24 8.25z" stroke="#000" stroke-opacity="0" fill="#0078d7"/><path d="M7650.82-3445.87l4.32.03" stroke="#5e5e5e" stroke-width="6" fill="none"/><path d="M7650.92-3448.84l-.04 5.95h-2.92l.9-1.4-3-4.57z" stroke="#5e5e5e" stroke-width=".05" fill="#5e5e5e"/><path d="M7672.4-3445.74l-14.3 4.55.07-9.26z" stroke="#5e5e5e" stroke-width="6" fill="#5e5e5e"/><path d="M7467.3-3395.24a6 6 0 0 1 6-6h236.35a6 6 0 0 1 6 6v110.8a6 6 0 0 1-6 6H7473.3a6 6 0 0 1-6-6z" stroke="#000" stroke-opacity="0" stroke-width="3" fill="#fff" fill-opacity="0"/><use xlink:href="#Z" transform="matrix(1,0,0,1,7472.292804389125,-3396.2396137103838) translate(98.61111111111111 42.722916666666656)"/><use xlink:href="#aa" transform="matrix(1,0,0,1,7472.292804389125,-3396.2396137103838) translate(27.58888888888893 80.32291666666663)"/><use xlink:href="#ab" transform="matrix(1,0,0,1,7472.292804389125,-3396.2396137103838) translate(116.62777777777777 80.32291666666663)"/><use xlink:href="#ac" transform="matrix(1,0,0,1,7472.292804389125,-3396.2396137103838) translate(143.60925925925923 80.32291666666663)"/><path d="M6188.82-2979.2a6 6 0 0 1 6-6H8574a6 6 0 0 1 6 6v566.62a6 6 0 0 1-6 6H6194.82a6 6 0 0 1-6-6z" stroke="#000" stroke-width="3" fill-opacity="0"/><path d="M7487.3-2933.27a6 6 0 0 1 6-6H8554a6 6 0 0 1 6 6v488a6 6 0 0 1-6 6H7493.3a6 6 0 0 1-6-6z" stroke="#e81313" stroke-width="3" fill-opacity="0"/><path d="M6949.9-2683.37h19.13" stroke="#5e5e5e" stroke-width="2" fill="none"/><path d="M6949.92-2682.4h-1.03v-1.95h1.02z" stroke="#5e5e5e" stroke-width=".05" fill="#5e5e5e"/><path d="M6984.3-2683.37l-14.27 4.63v-9.27z" stroke="#5e5e5e" stroke-width="2" fill="#5e5e5e"/><path d="M6783.34-2683.37h19.14" stroke="#5e5e5e" stroke-width="2" fill="none"/><path d="M6783.36-2682.4h-1.02v-1.95h1.02z" stroke="#5e5e5e" stroke-width=".05" fill="#5e5e5e"/><path d="M6817.74-2683.37l-14.26 4.63v-9.27z" stroke="#5e5e5e" stroke-width="2" fill="#5e5e5e"/><path d="M6774.84-2747.6a6 6 0 0 1 6 6v116.46a6 6 0 0 1-6 6h-112.92a6 6 0 0 1-6-6v-116.47a6 6 0 0 1 6-6z" stroke="#5e5e5e" stroke-width="3" fill="#cfe4ff"/><use xlink:href="#l" transform="matrix(6.123233995736766e-17,1,-1,6.123233995736766e-17,6768.837987424713,-2735.606240300551) translate(11.407407407407412 56.451388888888886)"/><path d="M7107.95-2747.6a6 6 0 0 1 6 6v116.46a6 6 0 0 1-6 6h-112.92a6 6 0 0 1-6-6v-116.47a6 6 0 0 1 6-6z" stroke="#5e5e5e" stroke-width="3" fill="#cfe4ff"/><g><use xlink:href="#U" transform="matrix(6.123233995736766e-17,1,-1,6.123233995736766e-17,7101.949973959296,-2735.606240300551) translate(41.308641975308646 56.451388888888886)"/></g><g><path d="M6941.4-2747.6a6 6 0 0 1 6 6v116.46a6 6 0 0 1-6 6h-112.92a6 6 0 0 1-6-6v-116.47a6 6 0 0 1 6-6z" stroke="#5e5e5e" stroke-width="3" fill="#cfe4ff"/></g><g><use xlink:href="#V" transform="matrix(6.123233995736766e-17,1,-1,6.123233995736766e-17,6935.393980692004,-2735.606240300551) translate(9.290123456790127 56.451388888888886)"/></g><path d="M6638.13-2758.37a6 6 0 0 1 6-6h508a6 6 0 0 1 6 6v154.15a6 6 0 0 1-6 6h-508a6 6 0 0 1-6-6z" stroke="#fcce14" stroke-width="3" fill-opacity="0"/><path d="M6733.6-2874a6 6 0 0 1 6-6h317.07a6 6 0 0 1 6 6v182.2a6 6 0 0 1-6 6H6739.6a6 6 0 0 1-6-6z" stroke="#000" stroke-opacity="0" stroke-width="3" fill="#fff" fill-opacity="0"/><g><use xlink:href="#ad" transform="matrix(1,0,0,1,6738.59594430364,-2874.9963086448283) translate(101.72870370370374 100.22291666666666)"/></g><path d="M6521-2692.3h-40.1c-2.1 0-3.4 1.48-3.4 2.97v44.54c0 1.9 1.7 3.4 3.4 3.4h47.64c2.08 0 3.52-1.5 3.52-3.4v-37.57H6521v-10.04zm-.92 38.47h-30.6v-5.18h30.6v5.17zm0-9.35h-30.6v-5.17h30.6v5.17zm0-9.65h-30.6v-5.17h30.6v5.17z" stroke="#000" stroke-opacity="0" fill="#0078d7"/><path d="M6537.52-2716.58h-64.84l-32.68 49.72 32.68 49.72h64.84l32.7-49.72-32.7-49.72zm-8.6 80.05h-47.65c-5.2 0-9.37-3.68-9.37-8.16v-44.63c0-4.58 4.17-8.16 9.38-8.16h43.22l13.68 12.15v40.56c.13 4.6-4.04 8.27-9.25 8.27z" stroke="#000" stroke-opacity="0" fill="#0078d7"/><path d="M6572.16-2668.46l37.5-.07" stroke="#5e5e5e" stroke-width="6" fill="none"/><path d="M6572.24-2665.48h-2.94l.9-1.38-3-4.56h5.03z" stroke="#5e5e5e" stroke-width=".05" fill="#5e5e5e"/><path d="M6626.92-2668.56l-14.25 4.66-.02-9.27z" stroke="#5e5e5e" stroke-width="6" fill="#5e5e5e"/><path d="M6229-2717.43a6 6 0 0 1 6-6h140.7a6 6 0 0 1 6 6V-2613a6 6 0 0 1-6 6H6235a6 6 0 0 1-6-6z" stroke="#000" stroke-opacity="0" stroke-width="3" fill="#fff" fill-opacity="0"/><g><use xlink:href="#ae" transform="matrix(1,0,0,1,6234,-2718.425494753896) translate(17.580555555555584 58.504166666666656)"/><use xlink:href="#af" transform="matrix(1,0,0,1,6234,-2718.425494753896) translate(83.64166666666665 58.504166666666656)"/></g><path d="M6207.3-2925.2a6 6 0 0 1 6-6h1030.35a6 6 0 0 1 6 6v479.2a6 6 0 0 1-6 6H6213.3a6 6 0 0 1-6-6z" stroke="#1071e5" stroke-width="3" fill-opacity="0"/><path d="M7162.13-2685.6l114.38.38" stroke="#5e5e5e" stroke-width="5" fill="none"/><path d="M7162.2-2688.07v4.96l-2.57-.02v-4.95z" stroke="#5e5e5e" stroke-width=".05" fill="#5e5e5e"/><path d="M7293.27-2685.16l-14.28 4.6.02-9.28z" stroke="#5e5e5e" stroke-width="5" fill="#5e5e5e"/><path d="M6365.5-2666.6l47.92.2M6365.6-2666.6l-3.1-.02" stroke="#5e5e5e" stroke-width="6" fill="none"/><path d="M6430.68-2666.3l-14.28 4.56.04-9.27z" stroke="#5e5e5e" stroke-width="6" fill="#5e5e5e"/><path d="M6207.3-3677.43a6 6 0 0 1 6-6H6414a6 6 0 0 1 6 6v31.64a6 6 0 0 1-6 6h-200.7a6 6 0 0 1-6-6z" stroke="#000" stroke-opacity="0" stroke-width="3" fill="#fff" fill-opacity="0"/><g><use xlink:href="#ag" transform="matrix(1,0,0,1,6212.292804389125,-3678.4262288161854) translate(18.666666666666714 37.33333333333331)"/><use xlink:href="#ah" transform="matrix(1,0,0,1,6212.292804389125,-3678.4262288161854) translate(158.40740740740736 37.33333333333331)"/></g><path d="M7487.3-3677.43a6 6 0 0 1 6-6h195.55a6 6 0 0 1 6 6v28.45a6 6 0 0 1-6 6H7493.3a6 6 0 0 1-6-6z" stroke="#000" stroke-opacity="0" stroke-width="3" fill="#fff" fill-opacity="0"/><g><use xlink:href="#ag" transform="matrix(1,0,0,1,7492.292804389124,-3678.4262288161854) translate(16.166666666666714 37.33333333333331)"/><use xlink:href="#ai" transform="matrix(1,0,0,1,7492.292804389124,-3678.4262288161854) translate(155.90740740740736 37.33333333333331)"/></g><defs><path d="M136-208V0H84v-208H4v-40h212v40h-80" id="aj"/><path d="M135-150c-39-12-60 13-60 57V0H25l-1-190h47c2 13-1 29 3 40 6-28 27-53 61-41v41" id="ak"/><path d="M133-34C117-15 103 5 69 4 32 3 11-16 11-54c-1-60 55-63 116-61 1-26-3-47-28-47-18 1-26 9-28 27l-52-2c7-38 36-58 82-57s74 22 75 68l1 82c-1 14 12 18 25 15v27c-30 8-71 5-69-32zm-48 3c29 0 43-24 42-57-32 0-66-3-65 30 0 17 8 27 23 27" id="al"/><path d="M25-224v-37h50v37H25zM25 0v-190h50V0H25" id="am"/><path d="M135-194c87-1 58 113 63 194h-50c-7-57 23-157-34-157-59 0-34 97-39 157H25l-1-190h47c2 12-1 28 3 38 12-26 28-41 61-42" id="an"/><path d="M195-6C206 82 75 100 31 46c-4-6-6-13-8-21l49-6c3 16 16 24 34 25 40 0 42-37 40-79-11 22-30 35-61 35-53 0-70-43-70-97 0-56 18-96 73-97 30 0 46 14 59 34l2-30h47zm-90-29c32 0 41-27 41-63 0-35-9-62-40-62-32 0-39 29-40 63 0 36 9 62 39 62" id="ao"/><g id="a"><use transform="matrix(0.12962962962962957,0,0,0.12962962962962957,0,0)" xlink:href="#aj"/><use transform="matrix(0.12962962962962957,0,0,0.12962962962962957,25.796296296296283,0)" xlink:href="#ak"/><use transform="matrix(0.12962962962962957,0,0,0.12962962962962957,43.94444444444442,0)" xlink:href="#al"/><use transform="matrix(0.12962962962962957,0,0,0.12962962962962957,69.87037037037034,0)" xlink:href="#am"/><use transform="matrix(0.12962962962962957,0,0,0.12962962962962957,82.8333333333333,0)" xlink:href="#an"/><use transform="matrix(0.12962962962962957,0,0,0.12962962962962957,111.22222222222217,0)" xlink:href="#am"/><use transform="matrix(0.12962962962962957,0,0,0.12962962962962957,124.18518518518513,0)" xlink:href="#an"/><use transform="matrix(0.12962962962962957,0,0,0.12962962962962957,152.57407407407402,0)" xlink:href="#ao"/></g><path d="M135-194c53 0 70 44 70 98 0 56-19 98-73 100-31 1-45-17-59-34 3 33 2 69 2 105H25l-1-265h48c2 10 0 23 3 31 11-24 29-35 60-35zM114-30c33 0 39-31 40-66 0-38-9-64-40-64-56 0-55 130 0 130" id="ap"/><path d="M114-157C55-157 80-60 75 0H25v-261h50l-1 109c12-26 28-41 61-42 86-1 58 113 63 194h-50c-7-57 23-157-34-157" id="aq"/><path d="M137-138c1-29-70-34-71-4 15 46 118 7 119 86 1 83-164 76-172 9l43-7c4 19 20 25 44 25 33 8 57-30 24-41C81-84 22-81 20-136c-2-80 154-74 161-7" id="ar"/><path d="M185-48c-13 30-37 53-82 52C43 2 14-33 14-96s30-98 90-98c62 0 83 45 84 108H66c0 31 8 55 39 56 18 0 30-7 34-22zm-45-69c5-46-57-63-70-21-2 6-4 13-4 21h74" id="as"/><g id="b"><use transform="matrix(0.12962962962962957,0,0,0.12962962962962957,0,0)" xlink:href="#ap"/><use transform="matrix(0.12962962962962957,0,0,0.12962962962962957,28.388888888888875,0)" xlink:href="#aq"/><use transform="matrix(0.12962962962962957,0,0,0.12962962962962957,56.77777777777775,0)" xlink:href="#al"/><use transform="matrix(0.12962962962962957,0,0,0.12962962962962957,82.70370370370367,0)" xlink:href="#ar"/><use transform="matrix(0.12962962962962957,0,0,0.12962962962962957,108.62962962962958,0)" xlink:href="#as"/></g><path d="M240-174c0 40-23 61-54 70L253 0h-59l-57-94H76V0H24v-248c93 4 217-23 216 74zM76-134c48-2 112 12 112-38 0-48-66-32-112-35v73" id="at"/><path d="M115-3C79 11 28 4 28-45v-112H4v-33h27l15-45h31v45h36v33H77v99c-1 23 16 31 38 25v30" id="au"/><path d="M128 0H69L1-190h53L99-40l48-150h52" id="av"/><path d="M25 0v-261h50V0H25" id="aw"/><g id="c"><use transform="matrix(0.12962962962962957,0,0,0.12962962962962957,0,0)" xlink:href="#at"/><use transform="matrix(0.12962962962962957,0,0,0.12962962962962957,33.574074074074055,0)" xlink:href="#as"/><use transform="matrix(0.12962962962962957,0,0,0.12962962962962957,59.49999999999997,0)" xlink:href="#au"/><use transform="matrix(0.12962962962962957,0,0,0.12962962962962957,74.9259259259259,0)" xlink:href="#ak"/><use transform="matrix(0.12962962962962957,0,0,0.12962962962962957,93.07407407407403,0)" xlink:href="#am"/><use transform="matrix(0.12962962962962957,0,0,0.12962962962962957,106.037037037037,0)" xlink:href="#as"/><use transform="matrix(0.12962962962962957,0,0,0.12962962962962957,131.9629629629629,0)" xlink:href="#av"/><use transform="matrix(0.12962962962962957,0,0,0.12962962962962957,157.88888888888883,0)" xlink:href="#al"/><use transform="matrix(0.12962962962962957,0,0,0.12962962962962957,183.81481481481475,0)" xlink:href="#aw"/></g><path d="M135-194c52 0 70 43 70 98 0 56-19 99-73 100-30 1-46-15-58-35L72 0H24l1-261h50v104c11-23 29-37 60-37zM114-30c31 0 40-27 40-66 0-37-7-63-39-63s-41 28-41 65c0 36 8 64 40 64" id="ax"/><path d="M14-72v-43h91v43H14" id="ay"/><path d="M190-63c-7 42-38 67-86 67-59 0-84-38-90-98-12-110 154-137 174-36l-49 2c-2-19-15-32-35-32-30 0-35 28-38 64-6 74 65 87 74 30" id="az"/><path d="M110-194c64 0 96 36 96 99 0 64-35 99-97 99-61 0-95-36-95-99 0-62 34-99 96-99zm-1 164c35 0 45-28 45-65 0-40-10-65-43-65-34 0-45 26-45 65 0 36 10 65 43 65" id="aA"/><path d="M88-194c31-1 46 15 58 34l-1-101h50l1 261h-48c-2-10 0-23-3-31C134-8 116 4 84 4 32 4 16-41 15-95c0-56 19-97 73-99zm17 164c33 0 40-30 41-66 1-37-9-64-41-64s-38 30-39 65c0 43 13 65 39 65" id="aB"/><g id="d"><use transform="matrix(0.12962962962962957,0,0,0.12962962962962957,0,0)" xlink:href="#ax"/><use transform="matrix(0.12962962962962957,0,0,0.12962962962962957,28.388888888888875,0)" xlink:href="#am"/><use transform="matrix(0.12962962962962957,0,0,0.12962962962962957,41.35185185185183,0)" xlink:href="#ay"/><use transform="matrix(0.12962962962962957,0,0,0.12962962962962957,56.77777777777775,0)" xlink:href="#as"/><use transform="matrix(0.12962962962962957,0,0,0.12962962962962957,82.70370370370367,0)" xlink:href="#an"/><use transform="matrix(0.12962962962962957,0,0,0.12962962962962957,111.09259259259254,0)" xlink:href="#az"/><use transform="matrix(0.12962962962962957,0,0,0.12962962962962957,137.01851851851845,0)" xlink:href="#aA"/><use transform="matrix(0.12962962962962957,0,0,0.12962962962962957,165.40740740740733,0)" xlink:href="#aB"/><use transform="matrix(0.12962962962962957,0,0,0.12962962962962957,193.79629629629622,0)" xlink:href="#as"/><use transform="matrix(0.12962962962962957,0,0,0.12962962962962957,219.72222222222214,0)" xlink:href="#ak"/></g><path d="M232-93c-1 65-40 97-104 97C67 4 28-28 28-90v-158h33c8 89-33 224 67 224 102 0 64-133 71-224h33v155" id="aC"/><path d="M240 0l2-218c-23 76-54 145-80 218h-23L58-218 59 0H30v-248h44l77 211c21-75 51-140 76-211h43V0h-30" id="aD"/><path d="M30 0v-248h33v221h125V0H30" id="aE"/><path d="M185-189c-5-48-123-54-124 2 14 75 158 14 163 119 3 78-121 87-175 55-17-10-28-26-33-46l33-7c5 56 141 63 141-1 0-78-155-14-162-118-5-82 145-84 179-34 5 7 8 16 11 25" id="aF"/><g id="e"><use transform="matrix(0.087037037037037,0,0,0.087037037037037,0,0)" xlink:href="#aC"/><use transform="matrix(0.087037037037037,0,0,0.087037037037037,22.54259259259258,0)" xlink:href="#aD"/><use transform="matrix(0.087037037037037,0,0,0.087037037037037,48.56666666666664,0)" xlink:href="#aE"/><use transform="matrix(0.087037037037037,0,0,0.087037037037037,65.97407407407404,0)" xlink:href="#aF"/></g><path d="M87 75C49 33 22-17 22-94c0-76 28-126 65-167h31c-38 41-64 92-64 168S80 34 118 75H87" id="aG"/><path d="M127-220V0H93v-220H8v-28h204v28h-85" id="aH"/><path d="M100-194c63 0 86 42 84 106H49c0 40 14 67 53 68 26 1 43-12 49-29l28 8c-11 28-37 45-77 45C44 4 14-33 15-96c1-61 26-98 85-98zm52 81c6-60-76-77-97-28-3 7-6 17-6 28h103" id="aI"/><path d="M114-163C36-179 61-72 57 0H25l-1-190h30c1 12-1 29 2 39 6-27 23-49 58-41v29" id="aJ"/><path d="M210-169c-67 3-38 105-44 169h-31v-121c0-29-5-50-35-48C34-165 62-65 56 0H25l-1-190h30c1 10-1 24 2 32 10-44 99-50 107 0 11-21 27-35 58-36 85-2 47 119 55 194h-31v-121c0-29-5-49-35-48" id="aK"/><path d="M68-38c1 34 0 65-14 84H32c9-13 17-26 17-46H33v-38h35" id="aL"/><g id="f"><use transform="matrix(0.09259259259259256,0,0,0.09259259259259256,0,0)" xlink:href="#aG"/><use transform="matrix(0.09259259259259256,0,0,0.09259259259259256,11.018518518518515,0)" xlink:href="#aH"/><use transform="matrix(0.09259259259259256,0,0,0.09259259259259256,27.59259259259258,0)" xlink:href="#aI"/><use transform="matrix(0.09259259259259256,0,0,0.09259259259259256,46.1111111111111,0)" xlink:href="#aJ"/><use transform="matrix(0.09259259259259256,0,0,0.09259259259259256,57.12962962962962,0)" xlink:href="#aK"/><use transform="matrix(0.09259259259259256,0,0,0.09259259259259256,84.8148148148148,0)" xlink:href="#aL"/></g><path d="M30-248c87 1 191-15 191 75 0 78-77 80-158 76V0H30v-248zm33 125c57 0 124 11 124-50 0-59-68-47-124-48v98" id="aM"/><path d="M100-194c62-1 85 37 85 99 1 63-27 99-86 99S16-35 15-95c0-66 28-99 85-99zM99-20c44 1 53-31 53-75 0-43-8-75-51-75s-53 32-53 75 10 74 51 75" id="aN"/><path d="M135-143c-3-34-86-38-87 0 15 53 115 12 119 90S17 21 10-45l28-5c4 36 97 45 98 0-10-56-113-15-118-90-4-57 82-63 122-42 12 7 21 19 24 35" id="aO"/><path d="M24-231v-30h32v30H24zM24 0v-190h32V0H24" id="aP"/><path d="M59-47c-2 24 18 29 38 22v24C64 9 27 4 27-40v-127H5v-23h24l9-43h21v43h35v23H59v120" id="aQ"/><path d="M108 0H70L1-190h34L89-25l56-165h34" id="aR"/><g id="g"><use transform="matrix(0.09259259259259256,0,0,0.09259259259259256,0,0)" xlink:href="#aM"/><use transform="matrix(0.09259259259259256,0,0,0.09259259259259256,22.222222222222214,0)" xlink:href="#aN"/><use transform="matrix(0.09259259259259256,0,0,0.09259259259259256,40.740740740740726,0)" xlink:href="#aO"/><use transform="matrix(0.09259259259259256,0,0,0.09259259259259256,57.40740740740739,0)" xlink:href="#aP"/><use transform="matrix(0.09259259259259256,0,0,0.09259259259259256,64.7222222222222,0)" xlink:href="#aQ"/><use transform="matrix(0.09259259259259256,0,0,0.09259259259259256,73.98148148148145,0)" xlink:href="#aP"/><use transform="matrix(0.09259259259259256,0,0,0.09259259259259256,81.29629629629626,0)" xlink:href="#aR"/><use transform="matrix(0.09259259259259256,0,0,0.09259259259259256,97.96296296296293,0)" xlink:href="#aI"/><use transform="matrix(0.09259259259259256,0,0,0.09259259259259256,116.48148148148144,0)" xlink:href="#aL"/></g><path d="M190 0L58-211 59 0H30v-248h39L202-35l-2-213h31V0h-41" id="aS"/><path d="M177-190C167-65 218 103 67 71c-23-6-38-20-44-43l32-5c15 47 100 32 89-28v-30C133-14 115 1 83 1 29 1 15-40 15-95c0-56 16-97 71-98 29-1 48 16 59 35 1-10 0-23 2-32h30zM94-22c36 0 50-32 50-73 0-42-14-75-50-75-39 0-46 34-46 75s6 73 46 73" id="aT"/><path d="M141-36C126-15 110 5 73 4 37 3 15-17 15-53c-1-64 63-63 125-63 3-35-9-54-41-54-24 1-41 7-42 31l-33-3c5-37 33-52 76-52 45 0 72 20 72 64v82c-1 20 7 32 28 27v20c-31 9-61-2-59-35zM48-53c0 20 12 33 32 33 41-3 63-29 60-74-43 2-92-5-92 41" id="aU"/><path d="M33-261c38 41 65 92 65 168S71 34 33 75H2C39 34 66-17 66-93S39-220 2-261h31" id="aV"/><g id="h"><use transform="matrix(0.09259259259259256,0,0,0.09259259259259256,0,0)" xlink:href="#aS"/><use transform="matrix(0.09259259259259256,0,0,0.09259259259259256,23.981481481481474,0)" xlink:href="#aI"/><use transform="matrix(0.09259259259259256,0,0,0.09259259259259256,42.499999999999986,0)" xlink:href="#aT"/><use transform="matrix(0.09259259259259256,0,0,0.09259259259259256,61.0185185185185,0)" xlink:href="#aU"/><use transform="matrix(0.09259259259259256,0,0,0.09259259259259256,79.53703703703701,0)" xlink:href="#aQ"/><use transform="matrix(0.09259259259259256,0,0,0.09259259259259256,88.79629629629626,0)" xlink:href="#aP"/><use transform="matrix(0.09259259259259256,0,0,0.09259259259259256,96.11111111111107,0)" xlink:href="#aR"/><use transform="matrix(0.09259259259259256,0,0,0.09259259259259256,112.77777777777774,0)" xlink:href="#aI"/><use transform="matrix(0.09259259259259256,0,0,0.09259259259259256,131.29629629629625,0)" xlink:href="#aV"/></g><path fill="#333" d="M160-131c35 5 61 23 61 61C221 17 115-2 30 0v-248c76 3 177-17 177 60 0 33-19 50-47 57zm-97-11c50-1 110 9 110-42 0-47-63-36-110-37v79zm0 115c55-2 124 14 124-45 0-56-70-42-124-44v89" id="aW"/><path fill="#333" d="M30 0v-248h187v28H63v79h144v27H63v87h162V0H30" id="aX"/><path fill="#333" d="M233-177c-1 41-23 64-60 70L243 0h-38l-65-103H63V0H30v-248c88 3 205-21 203 71zM63-129c60-2 137 13 137-47 0-61-80-42-137-45v92" id="aY"/><path fill="#333" d="M127-220V0H93v-220H8v-28h204v28h-85" id="aZ"/><g id="i"><use transform="matrix(0.08641975308641973,0,0,0.08641975308641973,0,0)" xlink:href="#aW"/><use transform="matrix(0.08641975308641973,0,0,0.08641975308641973,20.740740740740737,0)" xlink:href="#aX"/><use transform="matrix(0.08641975308641973,0,0,0.08641975308641973,41.481481481481474,0)" xlink:href="#aY"/><use transform="matrix(0.08641975308641973,0,0,0.08641975308641973,63.25925925925925,0)" xlink:href="#aZ"/></g><path fill="#333" d="M232-93c-1 65-40 97-104 97C67 4 28-28 28-90v-158h33c8 89-33 224 67 224 102 0 64-133 71-224h33v155" id="ba"/><use transform="matrix(0.08641975308641973,0,0,0.08641975308641973,0,0)" xlink:href="#ba" id="j"/><path fill="#333" d="M30-248c87 1 191-15 191 75 0 78-77 80-158 76V0H30v-248zm33 125c57 0 124 11 124-50 0-59-68-47-124-48v98" id="bb"/><path fill="#333" d="M140-251c81 0 123 46 123 126C263-46 219 4 140 4 59 4 17-45 17-125s42-126 123-126zm0 227c63 0 89-41 89-101s-29-99-89-99c-61 0-89 39-89 99S79-25 140-24" id="bc"/><path fill="#333" d="M30 0v-248h33v221h125V0H30" id="bd"/><path fill="#333" d="M33 0v-248h34V0H33" id="be"/><path fill="#333" d="M190 0L58-211 59 0H30v-248h39L202-35l-2-213h31V0h-41" id="bf"/><path fill="#333" d="M143 4C61 4 22-44 18-125c-5-107 100-154 193-111 17 8 29 25 37 43l-32 9c-13-25-37-40-76-40-61 0-88 39-88 99 0 61 29 100 91 101 35 0 62-11 79-27v-45h-74v-28h105v86C228-13 192 4 143 4" id="bg"/><g id="k"><use transform="matrix(0.08641975308641973,0,0,0.08641975308641973,0,0)" xlink:href="#bb"/><use transform="matrix(0.08641975308641973,0,0,0.08641975308641973,20.740740740740737,0)" xlink:href="#bc"/><use transform="matrix(0.08641975308641973,0,0,0.08641975308641973,44.938271604938265,0)" xlink:href="#bc"/><use transform="matrix(0.08641975308641973,0,0,0.08641975308641973,69.1358024691358,0)" xlink:href="#bd"/><use transform="matrix(0.08641975308641973,0,0,0.08641975308641973,86.41975308641975,0)" xlink:href="#be"/><use transform="matrix(0.08641975308641973,0,0,0.08641975308641973,95.06172839506172,0)" xlink:href="#bf"/><use transform="matrix(0.08641975308641973,0,0,0.08641975308641973,117.44444444444441,0)" xlink:href="#bg"/></g><g id="l"><use transform="matrix(0.08641975308641973,0,0,0.08641975308641973,0,0)" xlink:href="#aW"/><use transform="matrix(0.08641975308641973,0,0,0.08641975308641973,20.740740740740737,0)" xlink:href="#aX"/><use transform="matrix(0.08641975308641973,0,0,0.08641975308641973,41.481481481481474,0)" xlink:href="#aY"/><use transform="matrix(0.08641975308641973,0,0,0.08641975308641973,63.25925925925925,0)" xlink:href="#aZ"/></g><path fill="#333" d="M137 0h-34L2-248h35l83 218 83-218h36" id="bh"/><use transform="matrix(0.08641975308641973,0,0,0.08641975308641973,0,0)" xlink:href="#bh" id="m"/><g id="n"><use transform="matrix(0.08641975308641973,0,0,0.08641975308641973,0,0)" xlink:href="#bb"/><use transform="matrix(0.08641975308641973,0,0,0.08641975308641973,20.740740740740737,0)" xlink:href="#bc"/><use transform="matrix(0.08641975308641973,0,0,0.08641975308641973,44.938271604938265,0)" xlink:href="#bc"/><use transform="matrix(0.08641975308641973,0,0,0.08641975308641973,69.1358024691358,0)" xlink:href="#bd"/><use transform="matrix(0.08641975308641973,0,0,0.08641975308641973,86.41975308641975,0)" xlink:href="#be"/><use transform="matrix(0.08641975308641973,0,0,0.08641975308641973,95.06172839506172,0)" xlink:href="#bf"/><use transform="matrix(0.08641975308641973,0,0,0.08641975308641973,117.44444444444441,0)" xlink:href="#bg"/></g><path fill="#333" d="M96-169c-40 0-48 33-48 73s9 75 48 75c24 0 41-14 43-38l32 2c-6 37-31 61-74 61-59 0-76-41-82-99-10-93 101-131 147-64 4 7 5 14 7 22l-32 3c-4-21-16-35-41-35" id="bi"/><path fill="#333" d="M100-194c62-1 85 37 85 99 1 63-27 99-86 99S16-35 15-95c0-66 28-99 85-99zM99-20c44 1 53-31 53-75 0-43-8-75-51-75s-53 32-53 75 10 74 51 75" id="bj"/><path fill="#333" d="M135-143c-3-34-86-38-87 0 15 53 115 12 119 90S17 21 10-45l28-5c4 36 97 45 98 0-10-56-113-15-118-90-4-57 82-63 122-42 12 7 21 19 24 35" id="bk"/><path fill="#333" d="M24-231v-30h32v30H24zM24 0v-190h32V0H24" id="bl"/><path fill="#333" d="M117-194c89-4 53 116 60 194h-32v-121c0-31-8-49-39-48C34-167 62-67 57 0H25l-1-190h30c1 10-1 24 2 32 11-22 29-35 61-36" id="bm"/><path fill="#333" d="M100-194c63 0 86 42 84 106H49c0 40 14 67 53 68 26 1 43-12 49-29l28 8c-11 28-37 45-77 45C44 4 14-33 15-96c1-61 26-98 85-98zm52 81c6-60-76-77-97-28-3 7-6 17-6 28h103" id="bn"/><path fill="#333" d="M16-82v-28h88v28H16" id="bo"/><path fill="#333" d="M210-169c-67 3-38 105-44 169h-31v-121c0-29-5-50-35-48C34-165 62-65 56 0H25l-1-190h30c1 10-1 24 2 32 10-44 99-50 107 0 11-21 27-35 58-36 85-2 47 119 55 194h-31v-121c0-29-5-49-35-48" id="bp"/><path fill="#333" d="M24 0v-261h32V0H24" id="bq"/><path fill="#333" d="M141-36C126-15 110 5 73 4 37 3 15-17 15-53c-1-64 63-63 125-63 3-35-9-54-41-54-24 1-41 7-42 31l-33-3c5-37 33-52 76-52 45 0 72 20 72 64v82c-1 20 7 32 28 27v20c-31 9-61-2-59-35zM48-53c0 20 12 33 32 33 41-3 63-29 60-74-43 2-92-5-92 41" id="br"/><path fill="#333" d="M114-163C36-179 61-72 57 0H25l-1-190h30c1 12-1 29 2 39 6-27 23-49 58-41v29" id="bs"/><path fill="#333" d="M59-47c-2 24 18 29 38 22v24C64 9 27 4 27-40v-127H5v-23h24l9-43h21v43h35v23H59v120" id="bt"/><path fill="#333" d="M179-190L93 31C79 59 56 82 12 73V49c39 6 53-20 64-50L1-190h34L92-34l54-156h33" id="bu"/><g id="o"><use transform="matrix(0.08641975308641973,0,0,0.08641975308641973,0,0)" xlink:href="#bi"/><use transform="matrix(0.08641975308641973,0,0,0.08641975308641973,15.555555555555552,0)" xlink:href="#bj"/><use transform="matrix(0.08641975308641973,0,0,0.08641975308641973,32.8395061728395,0)" xlink:href="#bk"/><use transform="matrix(0.08641975308641973,0,0,0.08641975308641973,48.39506172839505,0)" xlink:href="#bl"/><use transform="matrix(0.08641975308641973,0,0,0.08641975308641973,55.22222222222221,0)" xlink:href="#bm"/><use transform="matrix(0.08641975308641973,0,0,0.08641975308641973,72.50617283950615,0)" xlink:href="#bn"/><use transform="matrix(0.08641975308641973,0,0,0.08641975308641973,89.7901234567901,0)" xlink:href="#bo"/><use transform="matrix(0.08641975308641973,0,0,0.08641975308641973,100.07407407407405,0)" xlink:href="#bk"/><use transform="matrix(0.08641975308641973,0,0,0.08641975308641973,115.6296296296296,0)" xlink:href="#bl"/><use transform="matrix(0.08641975308641973,0,0,0.08641975308641973,122.45679012345677,0)" xlink:href="#bp"/><use transform="matrix(0.08641975308641973,0,0,0.08641975308641973,148.29629629629628,0)" xlink:href="#bl"/><use transform="matrix(0.08641975308641973,0,0,0.08641975308641973,155.12345679012344,0)" xlink:href="#bq"/><use transform="matrix(0.08641975308641973,0,0,0.08641975308641973,161.9506172839506,0)" xlink:href="#br"/><use transform="matrix(0.08641975308641973,0,0,0.08641975308641973,179.23456790123456,0)" xlink:href="#bs"/><use transform="matrix(0.08641975308641973,0,0,0.08641975308641973,189.5185185185185,0)" xlink:href="#bt"/><use transform="matrix(0.08641975308641973,0,0,0.08641975308641973,198.16049382716048,0)" xlink:href="#bu"/></g><g id="p"><use transform="matrix(0.08641975308641973,0,0,0.08641975308641973,0,0)" xlink:href="#aZ"/><use transform="matrix(0.08641975308641973,0,0,0.08641975308641973,15.46913580246913,0)" xlink:href="#bn"/><use transform="matrix(0.08641975308641973,0,0,0.08641975308641973,32.753086419753075,0)" xlink:href="#bs"/><use transform="matrix(0.08641975308641973,0,0,0.08641975308641973,43.037037037037024,0)" xlink:href="#bp"/></g><path fill="#333" d="M108 0H70L1-190h34L89-25l56-165h34" id="bv"/><g id="q"><use transform="matrix(0.08641975308641973,0,0,0.08641975308641973,0,0)" xlink:href="#bb"/><use transform="matrix(0.08641975308641973,0,0,0.08641975308641973,20.740740740740737,0)" xlink:href="#bj"/><use transform="matrix(0.08641975308641973,0,0,0.08641975308641973,38.02469135802468,0)" xlink:href="#bk"/><use transform="matrix(0.08641975308641973,0,0,0.08641975308641973,53.58024691358023,0)" xlink:href="#bl"/><use transform="matrix(0.08641975308641973,0,0,0.08641975308641973,60.4074074074074,0)" xlink:href="#bt"/><use transform="matrix(0.08641975308641973,0,0,0.08641975308641973,69.04938271604937,0)" xlink:href="#bl"/><use transform="matrix(0.08641975308641973,0,0,0.08641975308641973,75.87654320987653,0)" xlink:href="#bv"/><use transform="matrix(0.08641975308641973,0,0,0.08641975308641973,91.43209876543207,0)" xlink:href="#bn"/></g><g id="r"><use transform="matrix(0.08641975308641973,0,0,0.08641975308641973,0,0)" xlink:href="#bj"/><use transform="matrix(0.08641975308641973,0,0,0.08641975308641973,17.283950617283946,0)" xlink:href="#bs"/></g><path fill="#333" d="M177-190C167-65 218 103 67 71c-23-6-38-20-44-43l32-5c15 47 100 32 89-28v-30C133-14 115 1 83 1 29 1 15-40 15-95c0-56 16-97 71-98 29-1 48 16 59 35 1-10 0-23 2-32h30zM94-22c36 0 50-32 50-73 0-42-14-75-50-75-39 0-46 34-46 75s6 73 46 73" id="bw"/><g id="s"><use transform="matrix(0.08641975308641973,0,0,0.08641975308641973,0,0)" xlink:href="#bf"/><use transform="matrix(0.08641975308641973,0,0,0.08641975308641973,22.38271604938271,0)" xlink:href="#bn"/><use transform="matrix(0.08641975308641973,0,0,0.08641975308641973,39.66666666666666,0)" xlink:href="#bw"/><use transform="matrix(0.08641975308641973,0,0,0.08641975308641973,56.950617283950606,0)" xlink:href="#br"/><use transform="matrix(0.08641975308641973,0,0,0.08641975308641973,74.23456790123456,0)" xlink:href="#bt"/><use transform="matrix(0.08641975308641973,0,0,0.08641975308641973,82.87654320987653,0)" xlink:href="#bl"/><use transform="matrix(0.08641975308641973,0,0,0.08641975308641973,89.70370370370371,0)" xlink:href="#bv"/><use transform="matrix(0.08641975308641973,0,0,0.08641975308641973,105.25925925925925,0)" xlink:href="#bn"/></g><g id="t"><use transform="matrix(0.08641975308641973,0,0,0.08641975308641973,0,0)" xlink:href="#aZ"/><use transform="matrix(0.08641975308641973,0,0,0.08641975308641973,15.46913580246913,0)" xlink:href="#bn"/><use transform="matrix(0.08641975308641973,0,0,0.08641975308641973,32.753086419753075,0)" xlink:href="#bs"/><use transform="matrix(0.08641975308641973,0,0,0.08641975308641973,43.037037037037024,0)" xlink:href="#bp"/></g><path d="M275 0h-61l-44-196L126 0H64L0-248h53L97-49l45-199h58l43 199 44-199h52" id="bx"/><path d="M175 0L67-191c6 58 2 128 3 191H24v-248h59L193-55c-6-58-2-129-3-193h46V0h-61" id="by"/><path d="M169-182c-1-43-94-46-97-3 18 66 151 10 154 114 3 95-165 93-204 36-6-8-10-19-12-30l50-8c3 46 112 56 116 5-17-69-150-10-154-114-4-87 153-88 188-35 5 8 8 18 10 28" id="bz"/><path d="M121-226c-27-7-43 5-38 36h38v33H83V0H34v-157H6v-33h28c-9-59 32-81 87-68v32" id="bA"/><path d="M220-157c-53 9-28 100-34 157h-49v-107c1-27-5-49-29-50C55-147 81-57 75 0H25l-1-190h47c2 12-1 28 3 38 10-53 101-56 108 0 13-22 24-43 59-42 82 1 51 116 57 194h-49v-107c-1-25-5-48-29-50" id="bB"/><path d="M144 0l-44-69L55 0H2l70-98-66-92h53l41 62 40-62h54l-67 91 71 99h-54" id="bC"/><g id="u"><use transform="matrix(0.12962962962962957,0,0,0.12962962962962957,0,0)" xlink:href="#bx"/><use transform="matrix(0.12962962962962957,0,0,0.12962962962962957,43.94444444444442,0)" xlink:href="#by"/><use transform="matrix(0.12962962962962957,0,0,0.12962962962962957,77.51851851851848,0)" xlink:href="#aj"/><use transform="matrix(0.12962962962962957,0,0,0.12962962962962957,103.31481481481475,0)" xlink:href="#ay"/><use transform="matrix(0.12962962962962957,0,0,0.12962962962962957,118.74074074074068,0)" xlink:href="#bz"/><use transform="matrix(0.12962962962962957,0,0,0.12962962962962957,149.85185185185176,0)" xlink:href="#aA"/><use transform="matrix(0.12962962962962957,0,0,0.12962962962962957,178.24074074074065,0)" xlink:href="#bA"/><use transform="matrix(0.12962962962962957,0,0,0.12962962962962957,193.66666666666657,0)" xlink:href="#au"/><use transform="matrix(0.12962962962962957,0,0,0.12962962962962957,209.0925925925925,0)" xlink:href="#bB"/><use transform="matrix(0.12962962962962957,0,0,0.12962962962962957,250.57407407407396,0)" xlink:href="#al"/><use transform="matrix(0.12962962962962957,0,0,0.12962962962962957,276.4999999999999,0)" xlink:href="#bC"/></g><path d="M24 0v-248h52V0H24" id="bD"/><g id="v"><use transform="matrix(0.12962962962962957,0,0,0.12962962962962957,0,0)" xlink:href="#bD"/><use transform="matrix(0.12962962962962957,0,0,0.12962962962962957,12.962962962962957,0)" xlink:href="#an"/><use transform="matrix(0.12962962962962957,0,0,0.12962962962962957,41.35185185185183,0)" xlink:href="#bA"/><use transform="matrix(0.12962962962962957,0,0,0.12962962962962957,56.77777777777775,0)" xlink:href="#as"/><use transform="matrix(0.12962962962962957,0,0,0.12962962962962957,82.70370370370367,0)" xlink:href="#ak"/><use transform="matrix(0.12962962962962957,0,0,0.12962962962962957,100.8518518518518,0)" xlink:href="#as"/><use transform="matrix(0.12962962962962957,0,0,0.12962962962962957,126.77777777777771,0)" xlink:href="#an"/><use transform="matrix(0.12962962962962957,0,0,0.12962962962962957,155.1666666666666,0)" xlink:href="#az"/><use transform="matrix(0.12962962962962957,0,0,0.12962962962962957,181.09259259259252,0)" xlink:href="#as"/></g><g id="w"><use transform="matrix(0.12962962962962957,0,0,0.12962962962962957,0,0)" xlink:href="#ap"/><use transform="matrix(0.12962962962962957,0,0,0.12962962962962957,28.388888888888875,0)" xlink:href="#aq"/><use transform="matrix(0.12962962962962957,0,0,0.12962962962962957,56.77777777777775,0)" xlink:href="#al"/><use transform="matrix(0.12962962962962957,0,0,0.12962962962962957,82.70370370370367,0)" xlink:href="#ar"/><use transform="matrix(0.12962962962962957,0,0,0.12962962962962957,108.62962962962958,0)" xlink:href="#as"/></g><g id="x"><use transform="matrix(0.12962962962962957,0,0,0.12962962962962957,0,0)" xlink:href="#at"/><use transform="matrix(0.12962962962962957,0,0,0.12962962962962957,33.574074074074055,0)" xlink:href="#as"/><use transform="matrix(0.12962962962962957,0,0,0.12962962962962957,59.49999999999997,0)" xlink:href="#au"/><use transform="matrix(0.12962962962962957,0,0,0.12962962962962957,74.9259259259259,0)" xlink:href="#ak"/><use transform="matrix(0.12962962962962957,0,0,0.12962962962962957,93.07407407407403,0)" xlink:href="#am"/><use transform="matrix(0.12962962962962957,0,0,0.12962962962962957,106.037037037037,0)" xlink:href="#as"/><use transform="matrix(0.12962962962962957,0,0,0.12962962962962957,131.9629629629629,0)" xlink:href="#av"/><use transform="matrix(0.12962962962962957,0,0,0.12962962962962957,157.88888888888883,0)" xlink:href="#al"/><use transform="matrix(0.12962962962962957,0,0,0.12962962962962957,183.81481481481475,0)" xlink:href="#aw"/></g><g id="y"><use transform="matrix(0.12962962962962957,0,0,0.12962962962962957,0,0)" xlink:href="#ax"/><use transform="matrix(0.12962962962962957,0,0,0.12962962962962957,28.388888888888875,0)" xlink:href="#am"/><use transform="matrix(0.12962962962962957,0,0,0.12962962962962957,41.35185185185183,0)" xlink:href="#ay"/><use transform="matrix(0.12962962962962957,0,0,0.12962962962962957,56.77777777777775,0)" xlink:href="#as"/><use transform="matrix(0.12962962962962957,0,0,0.12962962962962957,82.70370370370367,0)" xlink:href="#an"/><use transform="matrix(0.12962962962962957,0,0,0.12962962962962957,111.09259259259254,0)" xlink:href="#az"/><use transform="matrix(0.12962962962962957,0,0,0.12962962962962957,137.01851851851845,0)" xlink:href="#aA"/><use transform="matrix(0.12962962962962957,0,0,0.12962962962962957,165.40740740740733,0)" xlink:href="#aB"/><use transform="matrix(0.12962962962962957,0,0,0.12962962962962957,193.79629629629622,0)" xlink:href="#as"/><use transform="matrix(0.12962962962962957,0,0,0.12962962962962957,219.72222222222214,0)" xlink:href="#ak"/></g><path d="M30 0v-248h187v28H63v79h144v27H63v87h162V0H30" id="bE"/><path d="M115-194c53 0 69 39 70 98 0 66-23 100-70 100C84 3 66-7 56-30L54 0H23l1-261h32v101c10-23 28-34 59-34zm-8 174c40 0 45-34 45-75 0-40-5-75-45-74-42 0-51 32-51 76 0 43 10 73 51 73" id="bF"/><path d="M85-194c31 0 48 13 60 33l-1-100h32l1 261h-30c-2-10 0-23-3-31C134-8 116 4 85 4 32 4 16-35 15-94c0-66 23-100 70-100zm9 24c-40 0-46 34-46 75 0 40 6 74 45 74 42 0 51-32 51-76 0-42-9-74-50-73" id="bG"/><path d="M117-194c89-4 53 116 60 194h-32v-121c0-31-8-49-39-48C34-167 62-67 57 0H25l-1-190h30c1 10-1 24 2 32 11-22 29-35 61-36" id="bH"/><g id="z"><use transform="matrix(0.087037037037037,0,0,0.087037037037037,0,0)" xlink:href="#bE"/><use transform="matrix(0.087037037037037,0,0,0.087037037037037,20.88888888888888,0)" xlink:href="#aK"/><use transform="matrix(0.087037037037037,0,0,0.087037037037037,46.91296296296294,0)" xlink:href="#bF"/><use transform="matrix(0.087037037037037,0,0,0.087037037037037,64.32037037037034,0)" xlink:href="#aI"/><use transform="matrix(0.087037037037037,0,0,0.087037037037037,81.72777777777773,0)" xlink:href="#bG"/><use transform="matrix(0.087037037037037,0,0,0.087037037037037,99.13518518518512,0)" xlink:href="#bG"/><use transform="matrix(0.087037037037037,0,0,0.087037037037037,116.54259259259251,0)" xlink:href="#aP"/><use transform="matrix(0.087037037037037,0,0,0.087037037037037,123.41851851851844,0)" xlink:href="#bH"/><use transform="matrix(0.087037037037037,0,0,0.087037037037037,140.82592592592584,0)" xlink:href="#aT"/></g><g id="A"><use transform="matrix(0.087037037037037,0,0,0.087037037037037,0,0)" xlink:href="#bE"/><use transform="matrix(0.087037037037037,0,0,0.087037037037037,20.88888888888888,0)" xlink:href="#aK"/><use transform="matrix(0.087037037037037,0,0,0.087037037037037,46.91296296296294,0)" xlink:href="#bF"/><use transform="matrix(0.087037037037037,0,0,0.087037037037037,64.32037037037034,0)" xlink:href="#aI"/><use transform="matrix(0.087037037037037,0,0,0.087037037037037,81.72777777777773,0)" xlink:href="#bG"/><use transform="matrix(0.087037037037037,0,0,0.087037037037037,99.13518518518512,0)" xlink:href="#bG"/><use transform="matrix(0.087037037037037,0,0,0.087037037037037,116.54259259259251,0)" xlink:href="#aP"/><use transform="matrix(0.087037037037037,0,0,0.087037037037037,123.41851851851844,0)" xlink:href="#bH"/><use transform="matrix(0.087037037037037,0,0,0.087037037037037,140.82592592592584,0)" xlink:href="#aT"/></g><g id="B"><use transform="matrix(0.087037037037037,0,0,0.087037037037037,0,0)" xlink:href="#aE"/><use transform="matrix(0.087037037037037,0,0,0.087037037037037,17.407407407407398,0)" xlink:href="#aP"/><use transform="matrix(0.087037037037037,0,0,0.087037037037037,24.28333333333332,0)" xlink:href="#aO"/><use transform="matrix(0.087037037037037,0,0,0.087037037037037,39.94999999999998,0)" xlink:href="#aQ"/></g><path d="M187 0l-14-72H61L19 0h-37l149-248h38L221 0h-34zm-19-99l-22-123L76-99h92" id="bI"/><path d="M89 0H52L20-190h33L74-25l89-165h34" id="bJ"/><path d="M103-194c29 0 47 14 56 36 2-11 5-23 8-32h30L160-5C157 61 82 97 21 62 9 55 4 45 1 30l28-7c7 42 83 31 92-3 4-16 9-38 13-55-13 20-29 36-62 36-40 0-60-25-60-64 0-71 23-131 91-131zm4 24c-53 0-58 54-61 104-2 27 10 44 36 44 49 0 65-50 67-102 1-29-15-46-42-46" id="bK"/><path d="M17-49c1-102 45-165 103-212h30C92-210 49-145 49-46 49 4 63 43 85 75H54C30 43 18 2 17-49" id="bL"/><path d="M11 0l48-248h184l-5 28H87l-15 79h140l-5 27H67L50-27h158l-5 27H11" id="bM"/><path d="M248-111c6-24 9-61-24-58-72 9-57 108-77 169h-31l26-142c3-37-50-30-64-10C52-115 50-51 37 0H6l36-190h30c-1 10-6 24-4 32 13-43 101-52 105 5 13-22 29-41 61-41 90 0 28 129 23 194h-31" id="bN"/><path d="M68-162c25-46 127-43 121 31C183-60 169 1 98 4 69 5 53-11 43-31L36 0H5l52-261h31zm88 36c2-27-9-43-34-43-55 0-70 51-70 103 0 29 15 45 43 46 52 0 58-58 61-106" id="bO"/><path d="M51-54c-9 22 5 41 31 30L79-1C43 14 10-4 19-52l22-115H19l5-23h22l19-43h21l-9 43h35l-4 23H73" id="bP"/><path d="M111-194c62-3 86 47 72 106H45c-7 38 6 69 45 68 27-1 43-14 53-32l24 11C152-15 129 4 87 4 38 3 12-23 12-71c0-70 32-119 99-123zm44 81c14-66-71-72-95-28-4 8-8 17-11 28h106" id="bQ"/><path d="M9 0l6-27h63l36-188-63 39 6-31 66-41h29L110-27h60l-5 27H9" id="bR"/><path d="M98-137C97-35 54 29-4 75h-31C23 23 67-41 67-140c0-50-15-89-37-121h31c24 32 36 73 37 124" id="bS"/><g id="C"><use transform="matrix(0.09259259259259256,0,0,0.09259259259259256,0,0)" xlink:href="#bI"/><use transform="matrix(0.09259259259259256,0,0,0.09259259259259256,21.574074074074066,0)" xlink:href="#bJ"/><use transform="matrix(0.09259259259259256,0,0,0.09259259259259256,38.240740740740726,0)" xlink:href="#bK"/><use transform="matrix(0.09259259259259256,0,0,0.09259259259259256,56.75925925925924,0)" xlink:href="#bL"/><use transform="matrix(0.09259259259259256,0,0,0.09259259259259256,67.77777777777776,0)" xlink:href="#bM"/><use transform="matrix(0.09259259259259256,0,0,0.09259259259259256,89.99999999999997,0)" xlink:href="#bN"/><use transform="matrix(0.09259259259259256,0,0,0.09259259259259256,117.68518518518515,0)" xlink:href="#bO"/><use transform="matrix(0.09259259259259256,0,0,0.09259259259259256,136.20370370370367,0)" xlink:href="#bL"/><use transform="matrix(0.09259259259259256,0,0,0.09259259259259256,147.22222222222217,0)" xlink:href="#bP"/><use transform="matrix(0.06481481481481478,0,0,0.06481481481481478,156.48148148148144,-9.333333333333329)" xlink:href="#bQ"/><use transform="matrix(0.04753086419753084,0,0,0.04753086419753084,169.4444444444444,-6.844444444444441)" xlink:href="#bR"/><use transform="matrix(0.09259259259259256,0,0,0.09259259259259256,178.95061728395058,0)" xlink:href="#bS"/><use transform="matrix(0.09259259259259256,0,0,0.09259259259259256,189.96913580246908,0)" xlink:href="#bS"/></g><path d="M123-251c66 0 92 69 53 113C138-94 73-75 39-27h128l-5 27H-2c17-92 123-93 159-163 14-28-1-64-36-62-29 2-46 17-54 41l-30-6c13-36 37-61 86-61" id="bT"/><g id="D"><use transform="matrix(0.09259259259259256,0,0,0.09259259259259256,0,0)" xlink:href="#bI"/><use transform="matrix(0.09259259259259256,0,0,0.09259259259259256,21.574074074074066,0)" xlink:href="#bJ"/><use transform="matrix(0.09259259259259256,0,0,0.09259259259259256,38.240740740740726,0)" xlink:href="#bK"/><use transform="matrix(0.09259259259259256,0,0,0.09259259259259256,56.75925925925924,0)" xlink:href="#bL"/><use transform="matrix(0.09259259259259256,0,0,0.09259259259259256,67.77777777777776,0)" xlink:href="#bM"/><use transform="matrix(0.09259259259259256,0,0,0.09259259259259256,89.99999999999997,0)" xlink:href="#bN"/><use transform="matrix(0.09259259259259256,0,0,0.09259259259259256,117.68518518518515,0)" xlink:href="#bO"/><use transform="matrix(0.09259259259259256,0,0,0.09259259259259256,136.20370370370367,0)" xlink:href="#bL"/><use transform="matrix(0.09259259259259256,0,0,0.09259259259259256,147.22222222222217,0)" xlink:href="#bP"/><use transform="matrix(0.06481481481481478,0,0,0.06481481481481478,156.48148148148144,-9.333333333333329)" xlink:href="#bQ"/><use transform="matrix(0.04320987654320984,0,0,0.04320987654320984,169.4444444444444,-6.222222222222217)" xlink:href="#bT"/><use transform="matrix(0.09259259259259256,0,0,0.09259259259259256,178.08641975308637,0)" xlink:href="#bS"/><use transform="matrix(0.09259259259259256,0,0,0.09259259259259256,189.10493827160488,0)" xlink:href="#bS"/></g><path d="M67-158c22-48 132-52 116 29L158 0h-32l25-140c3-38-53-32-70-12C52-117 51-52 38 0H6l36-190h30" id="bU"/><g id="E"><use transform="matrix(0.09259259259259256,0,0,0.09259259259259256,0,0)" xlink:href="#bI"/><use transform="matrix(0.09259259259259256,0,0,0.09259259259259256,21.574074074074066,0)" xlink:href="#bJ"/><use transform="matrix(0.09259259259259256,0,0,0.09259259259259256,38.240740740740726,0)" xlink:href="#bK"/><use transform="matrix(0.09259259259259256,0,0,0.09259259259259256,56.75925925925924,0)" xlink:href="#bL"/><use transform="matrix(0.09259259259259256,0,0,0.09259259259259256,67.77777777777776,0)" xlink:href="#bM"/><use transform="matrix(0.09259259259259256,0,0,0.09259259259259256,89.99999999999997,0)" xlink:href="#bN"/><use transform="matrix(0.09259259259259256,0,0,0.09259259259259256,117.68518518518515,0)" xlink:href="#bO"/><use transform="matrix(0.09259259259259256,0,0,0.09259259259259256,136.20370370370367,0)" xlink:href="#bL"/><use transform="matrix(0.09259259259259256,0,0,0.09259259259259256,147.22222222222217,0)" xlink:href="#bP"/><use transform="matrix(0.06481481481481478,0,0,0.06481481481481478,156.48148148148144,-9.333333333333329)" xlink:href="#bQ"/><use transform="matrix(0.04753086419753084,0,0,0.04753086419753084,169.4444444444444,-6.844444444444441)" xlink:href="#bU"/><use transform="matrix(0.09259259259259256,0,0,0.09259259259259256,178.95061728395058,0)" xlink:href="#bS"/><use transform="matrix(0.09259259259259256,0,0,0.09259259259259256,189.96913580246908,0)" xlink:href="#bS"/></g><path d="M33 0v-38h34V0H33" id="bV"/><g id="F"><use transform="matrix(0.06172839506172839,0,0,0.06172839506172839,0,0)" xlink:href="#bV"/><use transform="matrix(0.06172839506172839,0,0,0.06172839506172839,6.172839506172839,0)" xlink:href="#bV"/><use transform="matrix(0.06172839506172839,0,0,0.06172839506172839,12.345679012345679,0)" xlink:href="#bV"/></g><g id="G"><use transform="matrix(0.08703703703703701,0,0,0.08703703703703701,0,0)" xlink:href="#aE"/><use transform="matrix(0.08703703703703701,0,0,0.08703703703703701,17.4074074074074,0)" xlink:href="#aP"/><use transform="matrix(0.08703703703703701,0,0,0.08703703703703701,24.283333333333324,0)" xlink:href="#aO"/><use transform="matrix(0.08703703703703701,0,0,0.08703703703703701,39.94999999999999,0)" xlink:href="#aQ"/></g><path d="M101-234c-31-9-42 10-38 44h38v23H63V0H32v-167H5v-23h27c-7-52 17-82 69-68v24" id="bW"/><g id="H"><use transform="matrix(0.08703703703703701,0,0,0.08703703703703701,0,0)" xlink:href="#aN"/><use transform="matrix(0.08703703703703701,0,0,0.08703703703703701,17.4074074074074,0)" xlink:href="#bW"/></g><path d="M96-169c-40 0-48 33-48 73s9 75 48 75c24 0 41-14 43-38l32 2c-6 37-31 61-74 61-59 0-76-41-82-99-10-93 101-131 147-64 4 7 5 14 7 22l-32 3c-4-21-16-35-41-35" id="bX"/><g id="I"><use transform="matrix(0.08703703703703701,0,0,0.08703703703703701,0,0)" xlink:href="#bX"/><use transform="matrix(0.08703703703703701,0,0,0.08703703703703701,15.666666666666663,0)" xlink:href="#aU"/><use transform="matrix(0.08703703703703701,0,0,0.08703703703703701,33.07407407407406,0)" xlink:href="#bH"/><use transform="matrix(0.08703703703703701,0,0,0.08703703703703701,50.48148148148147,0)" xlink:href="#bG"/><use transform="matrix(0.08703703703703701,0,0,0.08703703703703701,67.88888888888887,0)" xlink:href="#aP"/><use transform="matrix(0.08703703703703701,0,0,0.08703703703703701,74.7648148148148,0)" xlink:href="#bG"/><use transform="matrix(0.08703703703703701,0,0,0.08703703703703701,92.17222222222219,0)" xlink:href="#aU"/><use transform="matrix(0.08703703703703701,0,0,0.08703703703703701,109.57962962962962,0)" xlink:href="#aQ"/><use transform="matrix(0.08703703703703701,0,0,0.08703703703703701,118.2833333333333,0)" xlink:href="#aI"/><use transform="matrix(0.08703703703703701,0,0,0.08703703703703701,135.6907407407407,0)" xlink:href="#aO"/></g><path d="M67-162c32-53 139-36 121 50C175-51 163 2 97 4 68 4 52-11 42-31 38 6 28 39 22 75H-9l50-265h29c-1 10 0 20-3 28zm89 36c0-26-10-43-35-43-54 0-67 50-69 103-1 29 14 45 42 46 53 0 62-58 62-106" id="bY"/><g id="J"><use transform="matrix(0.0987654320987654,0,0,0.0987654320987654,0,0)" xlink:href="#bY"/><use transform="matrix(0.0987654320987654,0,0,0.0987654320987654,19.753086419753078,0)" xlink:href="#bL"/><use transform="matrix(0.0987654320987654,0,0,0.0987654320987654,31.506172839506164,0)" xlink:href="#bQ"/><use transform="matrix(0.05555555555555554,0,0,0.05555555555555554,51.25925925925924,0)" xlink:href="#bR"/></g><path d="M37 80v-341h30V80H37" id="bZ"/><use transform="matrix(0.0987654320987654,0,0,0.0987654320987654,0,0)" xlink:href="#bZ" id="K"/><g id="L"><use transform="matrix(0.0987654320987654,0,0,0.0987654320987654,0,0)" xlink:href="#bN"/><use transform="matrix(0.0987654320987654,0,0,0.0987654320987654,29.530864197530853,0)" xlink:href="#bS"/></g><g id="M"><use transform="matrix(0.0987654320987654,0,0,0.0987654320987654,0,0)" xlink:href="#bY"/><use transform="matrix(0.0987654320987654,0,0,0.0987654320987654,19.753086419753078,0)" xlink:href="#bL"/><use transform="matrix(0.0987654320987654,0,0,0.0987654320987654,31.506172839506164,0)" xlink:href="#bQ"/><use transform="matrix(0.05555555555555554,0,0,0.05555555555555554,51.25925925925924,0)" xlink:href="#bT"/></g><g id="N"><use transform="matrix(0.0987654320987654,0,0,0.0987654320987654,0,0)" xlink:href="#bY"/><use transform="matrix(0.0987654320987654,0,0,0.0987654320987654,19.753086419753078,0)" xlink:href="#bL"/><use transform="matrix(0.0987654320987654,0,0,0.0987654320987654,31.506172839506164,0)" xlink:href="#bQ"/><use transform="matrix(0.05555555555555554,0,0,0.05555555555555554,51.25925925925924,0)" xlink:href="#bU"/></g><g id="O"><use transform="matrix(0.08024691358024688,0,0,0.08024691358024688,0,0)" xlink:href="#bV"/><use transform="matrix(0.08024691358024688,0,0,0.08024691358024688,8.024691358024688,0)" xlink:href="#bV"/><use transform="matrix(0.08024691358024688,0,0,0.08024691358024688,16.049382716049376,0)" xlink:href="#bV"/></g><g id="P"><use transform="matrix(0.08703703703703701,0,0,0.08703703703703701,0,0)" xlink:href="#aE"/><use transform="matrix(0.08703703703703701,0,0,0.08703703703703701,17.4074074074074,0)" xlink:href="#aP"/><use transform="matrix(0.08703703703703701,0,0,0.08703703703703701,24.283333333333324,0)" xlink:href="#aO"/><use transform="matrix(0.08703703703703701,0,0,0.08703703703703701,39.94999999999999,0)" xlink:href="#aQ"/></g><g id="Q"><use transform="matrix(0.08703703703703701,0,0,0.08703703703703701,0,0)" xlink:href="#aN"/><use transform="matrix(0.08703703703703701,0,0,0.08703703703703701,17.4074074074074,0)" xlink:href="#bW"/></g><g id="R"><use transform="matrix(0.08703703703703701,0,0,0.08703703703703701,0,0)" xlink:href="#bX"/><use transform="matrix(0.08703703703703701,0,0,0.08703703703703701,15.666666666666663,0)" xlink:href="#aU"/><use transform="matrix(0.08703703703703701,0,0,0.08703703703703701,33.07407407407406,0)" xlink:href="#bH"/><use transform="matrix(0.08703703703703701,0,0,0.08703703703703701,50.48148148148147,0)" xlink:href="#bG"/><use transform="matrix(0.08703703703703701,0,0,0.08703703703703701,67.88888888888887,0)" xlink:href="#aP"/><use transform="matrix(0.08703703703703701,0,0,0.08703703703703701,74.7648148148148,0)" xlink:href="#bG"/><use transform="matrix(0.08703703703703701,0,0,0.08703703703703701,92.17222222222219,0)" xlink:href="#aU"/><use transform="matrix(0.08703703703703701,0,0,0.08703703703703701,109.57962962962962,0)" xlink:href="#aQ"/><use transform="matrix(0.08703703703703701,0,0,0.08703703703703701,118.2833333333333,0)" xlink:href="#aI"/><use transform="matrix(0.08703703703703701,0,0,0.08703703703703701,135.6907407407407,0)" xlink:href="#aO"/></g><g id="S"><use transform="matrix(0.12962962962962957,0,0,0.12962962962962957,0,0)" xlink:href="#bx"/><use transform="matrix(0.12962962962962957,0,0,0.12962962962962957,43.94444444444442,0)" xlink:href="#by"/><use transform="matrix(0.12962962962962957,0,0,0.12962962962962957,77.51851851851848,0)" xlink:href="#aj"/><use transform="matrix(0.12962962962962957,0,0,0.12962962962962957,103.31481481481475,0)" xlink:href="#ay"/><use transform="matrix(0.12962962962962957,0,0,0.12962962962962957,118.74074074074068,0)" xlink:href="#bz"/><use transform="matrix(0.12962962962962957,0,0,0.12962962962962957,149.85185185185176,0)" xlink:href="#aA"/><use transform="matrix(0.12962962962962957,0,0,0.12962962962962957,178.24074074074065,0)" xlink:href="#bA"/><use transform="matrix(0.12962962962962957,0,0,0.12962962962962957,193.66666666666657,0)" xlink:href="#au"/><use transform="matrix(0.12962962962962957,0,0,0.12962962962962957,209.0925925925925,0)" xlink:href="#bB"/><use transform="matrix(0.12962962962962957,0,0,0.12962962962962957,250.57407407407396,0)" xlink:href="#al"/><use transform="matrix(0.12962962962962957,0,0,0.12962962962962957,276.4999999999999,0)" xlink:href="#bC"/></g><g id="T"><use transform="matrix(0.087037037037037,0,0,0.087037037037037,0,0)" xlink:href="#bE"/><use transform="matrix(0.087037037037037,0,0,0.087037037037037,20.88888888888888,0)" xlink:href="#bH"/><use transform="matrix(0.087037037037037,0,0,0.087037037037037,38.296296296296276,0)" xlink:href="#bX"/><use transform="matrix(0.087037037037037,0,0,0.087037037037037,53.96296296296294,0)" xlink:href="#aN"/><use transform="matrix(0.087037037037037,0,0,0.087037037037037,71.37037037037032,0)" xlink:href="#bG"/><use transform="matrix(0.087037037037037,0,0,0.087037037037037,88.77777777777771,0)" xlink:href="#aI"/><use transform="matrix(0.087037037037037,0,0,0.087037037037037,106.18518518518509,0)" xlink:href="#aJ"/></g><use transform="matrix(0.08641975308641973,0,0,0.08641975308641973,0,0)" xlink:href="#ba" id="U"/><g id="V"><use transform="matrix(0.08641975308641973,0,0,0.08641975308641973,0,0)" xlink:href="#bb"/><use transform="matrix(0.08641975308641973,0,0,0.08641975308641973,20.740740740740737,0)" xlink:href="#bc"/><use transform="matrix(0.08641975308641973,0,0,0.08641975308641973,44.938271604938265,0)" xlink:href="#bc"/><use transform="matrix(0.08641975308641973,0,0,0.08641975308641973,69.1358024691358,0)" xlink:href="#bd"/></g><g id="W"><use transform="matrix(0.09320987654320984,0,0,0.09320987654320984,0,0)" xlink:href="#bE"/><use transform="matrix(0.09320987654320984,0,0,0.09320987654320984,22.37037037037036,0)" xlink:href="#bH"/><use transform="matrix(0.09320987654320984,0,0,0.09320987654320984,41.01234567901233,0)" xlink:href="#bX"/><use transform="matrix(0.09320987654320984,0,0,0.09320987654320984,57.7901234567901,0)" xlink:href="#aN"/><use transform="matrix(0.09320987654320984,0,0,0.09320987654320984,76.43209876543207,0)" xlink:href="#bG"/><use transform="matrix(0.09320987654320984,0,0,0.09320987654320984,95.07407407407405,0)" xlink:href="#aI"/><use transform="matrix(0.09320987654320984,0,0,0.09320987654320984,113.71604938271602,0)" xlink:href="#aJ"/></g><path d="M206 0h-36l-40-164L89 0H53L-1-190h32L70-26l43-164h34l41 164 42-164h31" id="ca"/><path d="M106-169C34-169 62-67 57 0H25v-261h32l-1 103c12-21 28-36 61-36 89 0 53 116 60 194h-32v-121c2-32-8-49-39-48" id="cb"/><g id="X"><use transform="matrix(0.09320987654320984,0,0,0.09320987654320984,0,0)" xlink:href="#aG"/><use transform="matrix(0.09320987654320984,0,0,0.09320987654320984,11.09197530864197,0)" xlink:href="#ca"/><use transform="matrix(0.09320987654320984,0,0,0.09320987654320984,35.23333333333332,0)" xlink:href="#aI"/><use transform="matrix(0.09320987654320984,0,0,0.09320987654320984,53.87530864197529,0)" xlink:href="#aP"/><use transform="matrix(0.09320987654320984,0,0,0.09320987654320984,61.23888888888886,0)" xlink:href="#aT"/><use transform="matrix(0.09320987654320984,0,0,0.09320987654320984,79.88086419753083,0)" xlink:href="#cb"/><use transform="matrix(0.09320987654320984,0,0,0.09320987654320984,98.5228395061728,0)" xlink:href="#aQ"/><use transform="matrix(0.09320987654320984,0,0,0.09320987654320984,107.84382716049377,0)" xlink:href="#aO"/></g><path d="M9 0v-24l116-142H16v-24h144v24L44-24h123V0H9" id="cc"/><g id="Y"><use transform="matrix(0.09320987654320984,0,0,0.09320987654320984,0,0)" xlink:href="#bW"/><use transform="matrix(0.09320987654320984,0,0,0.09320987654320984,9.320987654320984,0)" xlink:href="#aJ"/><use transform="matrix(0.09320987654320984,0,0,0.09320987654320984,20.412962962962954,0)" xlink:href="#aN"/><use transform="matrix(0.09320987654320984,0,0,0.09320987654320984,39.054938271604925,0)" xlink:href="#cc"/><use transform="matrix(0.09320987654320984,0,0,0.09320987654320984,55.83271604938269,0)" xlink:href="#aI"/><use transform="matrix(0.09320987654320984,0,0,0.09320987654320984,74.47469135802467,0)" xlink:href="#bH"/><use transform="matrix(0.09320987654320984,0,0,0.09320987654320984,93.11666666666665,0)" xlink:href="#aV"/></g><path d="M194 0L95-120 63-95V0H30v-248h33v124l119-124h40L117-140 236 0h-42" id="cd"/><path d="M160-131c35 5 61 23 61 61C221 17 115-2 30 0v-248c76 3 177-17 177 60 0 33-19 50-47 57zm-97-11c50-1 110 9 110-42 0-47-63-36-110-37v79zm0 115c55-2 124 14 124-45 0-56-70-42-124-44v89" id="ce"/><g id="Z"><use transform="matrix(0.087037037037037,0,0,0.087037037037037,0,0)" xlink:href="#cd"/><use transform="matrix(0.087037037037037,0,0,0.087037037037037,20.88888888888888,0)" xlink:href="#ce"/></g><g id="aa"><use transform="matrix(0.087037037037037,0,0,0.087037037037037,0,0)" xlink:href="#aG"/><use transform="matrix(0.087037037037037,0,0,0.087037037037037,10.357407407407402,0)" xlink:href="#aH"/><use transform="matrix(0.087037037037037,0,0,0.087037037037037,28.287037037037024,0)" xlink:href="#aJ"/><use transform="matrix(0.087037037037037,0,0,0.087037037037037,38.644444444444424,0)" xlink:href="#aU"/><use transform="matrix(0.087037037037037,0,0,0.087037037037037,56.05185185185182,0)" xlink:href="#aP"/><use transform="matrix(0.087037037037037,0,0,0.087037037037037,62.92777777777775,0)" xlink:href="#bH"/></g><path d="M118-107v75H92v-75H18v-26h74v-75h26v75h74v26h-74" id="cf"/><use transform="matrix(0.087037037037037,0,0,0.087037037037037,0,0)" xlink:href="#cf" id="ab"/><path d="M143 4C61 4 22-44 18-125c-5-107 100-154 193-111 17 8 29 25 37 43l-32 9c-13-25-37-40-76-40-61 0-88 39-88 99 0 61 29 100 91 101 35 0 62-11 79-27v-45h-74v-28h105v86C228-13 192 4 143 4" id="cg"/><g id="ac"><use transform="matrix(0.087037037037037,0,0,0.087037037037037,0,0)" xlink:href="#cg"/><use transform="matrix(0.087037037037037,0,0,0.087037037037037,24.37037037037036,0)" xlink:href="#aU"/><use transform="matrix(0.087037037037037,0,0,0.087037037037037,41.77777777777776,0)" xlink:href="#cc"/><use transform="matrix(0.087037037037037,0,0,0.087037037037037,57.444444444444414,0)" xlink:href="#aV"/></g><g id="ad"><use transform="matrix(0.087037037037037,0,0,0.087037037037037,0,0)" xlink:href="#bE"/><use transform="matrix(0.087037037037037,0,0,0.087037037037037,20.88888888888888,0)" xlink:href="#bH"/><use transform="matrix(0.087037037037037,0,0,0.087037037037037,38.296296296296276,0)" xlink:href="#bX"/><use transform="matrix(0.087037037037037,0,0,0.087037037037037,53.96296296296294,0)" xlink:href="#aN"/><use transform="matrix(0.087037037037037,0,0,0.087037037037037,71.37037037037032,0)" xlink:href="#bG"/><use transform="matrix(0.087037037037037,0,0,0.087037037037037,88.77777777777771,0)" xlink:href="#aI"/><use transform="matrix(0.087037037037037,0,0,0.087037037037037,106.18518518518509,0)" xlink:href="#aJ"/></g><g id="ae"><use transform="matrix(0.087037037037037,0,0,0.087037037037037,0,0)" xlink:href="#aH"/><use transform="matrix(0.087037037037037,0,0,0.087037037037037,15.579629629629622,0)" xlink:href="#aI"/><use transform="matrix(0.087037037037037,0,0,0.087037037037037,32.98703703703702,0)" xlink:href="#aO"/><use transform="matrix(0.087037037037037,0,0,0.087037037037037,48.653703703703684,0)" xlink:href="#aQ"/></g><g id="af"><use transform="matrix(0.087037037037037,0,0,0.087037037037037,0,0)" xlink:href="#aO"/><use transform="matrix(0.087037037037037,0,0,0.087037037037037,15.666666666666659,0)" xlink:href="#aI"/><use transform="matrix(0.087037037037037,0,0,0.087037037037037,33.074074074074055,0)" xlink:href="#aQ"/></g><g id="ag"><use transform="matrix(0.12962962962962954,0,0,0.12962962962962954,0,0)" xlink:href="#bz"/><use transform="matrix(0.12962962962962954,0,0,0.12962962962962954,31.11111111111109,0)" xlink:href="#au"/><use transform="matrix(0.12962962962962954,0,0,0.12962962962962954,46.537037037037,0)" xlink:href="#al"/><use transform="matrix(0.12962962962962954,0,0,0.12962962962962954,72.46296296296292,0)" xlink:href="#ao"/><use transform="matrix(0.12962962962962954,0,0,0.12962962962962954,100.85185185185178,0)" xlink:href="#as"/></g><path d="M23 0v-37h61v-169l-59 37v-38l62-41h46v211h57V0H23" id="ch"/><use transform="matrix(0.12962962962962954,0,0,0.12962962962962954,0,0)" xlink:href="#ch" id="ah"/><path d="M182-182c0 78-84 86-111 141h115V0H12c-6-101 99-100 120-180 1-22-12-31-33-32-23 0-32 14-35 34l-49-3c5-45 32-70 84-70 51 0 83 22 83 69" id="ci"/><use transform="matrix(0.12962962962962954,0,0,0.12962962962962954,0,0)" xlink:href="#ci" id="ai"/></defs></g></svg>